<?xml version="1.0" standalone="no"?>
<!DOCTYPE svg PUBLIC "-//W3C//DTD SVG 20010904//EN"
 "http://www.w3.org/TR/2001/REC-SVG-20010904/DTD/svg10.dtd">
<svg version="1.0" xmlns="http://www.w3.org/2000/svg"
 width="1899.000000pt" height="1899.000000pt" viewBox="0 0 1899.000000 1899.000000"
 preserveAspectRatio="xMidYMid meet">
<metadata>
Created by potrace 1.11, written by Peter Selinger 2001-2013
</metadata>
<g transform="translate(0.000000,1899.000000) scale(0.100000,-0.100000)"
fill="#000000" stroke="none">
<path d="M9885 13973 c-32 -8 -51 -9 -53 -3 -6 16 -156 12 -209 -6 -39 -13
-53 -14 -87 -4 -25 8 -125 14 -252 17 -175 3 -220 1 -258 -12 -31 -11 -52 -13
-59 -7 -21 17 -158 26 -167 12 -6 -10 -15 -10 -40 -1 -40 14 -113 14 -126 1
-6 -6 -22 -6 -46 2 -26 8 -48 8 -78 0 -31 -8 -48 -7 -60 0 -14 9 -23 7 -45
-10 -29 -23 -51 -28 -57 -13 -1 5 -43 6 -92 2 -88 -6 -90 -6 -97 -35 -14 -52
3 -66 81 -66 55 0 70 -3 70 -15 0 -8 -14 -17 -36 -21 -21 -4 -31 -10 -24 -14
8 -5 4 -9 -12 -13 -36 -10 -78 -8 -78 4 0 6 -42 9 -124 7 -90 -2 -128 0 -137
10 -10 10 -5 12 27 13 37 1 37 2 9 8 -25 6 -19 8 35 14 36 3 82 11 103 17 35
10 38 14 32 38 -3 15 -10 31 -15 36 -12 12 -83 11 -220 -2 -139 -14 -170 -21
-190 -38 -12 -10 -18 -10 -34 2 -24 17 -60 18 -89 2 -28 -16 -25 -16 -252 -22
l-190 -5 -21 -26 c-18 -23 -26 -26 -56 -20 -19 4 -108 -3 -197 -15 -90 -11
-198 -21 -240 -20 -120 1 -291 -28 -350 -58 -36 -19 -163 -37 -175 -25 -9 10
-99 3 -110 -7 -12 -12 -46 7 -46 25 0 21 -43 19 -62 -2 -8 -10 -18 -30 -22
-45 -7 -29 -23 -37 -90 -43 -25 -2 -58 -10 -73 -19 -31 -16 -109 -36 -144 -36
-12 0 -27 -7 -33 -15 -13 -18 -32 -19 -97 -7 -58 11 -93 0 -84 -27 5 -17 -1
-20 -52 -25 -116 -12 -199 -29 -238 -48 -31 -16 -50 -18 -92 -13 -44 5 -58 3
-95 -18 -24 -14 -59 -28 -78 -32 -19 -4 -52 -16 -72 -26 -24 -12 -58 -19 -96
-19 -41 0 -64 -5 -72 -15 -7 -8 -18 -15 -25 -15 -7 0 -15 -7 -19 -15 -4 -10
-14 -13 -34 -9 -19 4 -39 -1 -62 -14 -26 -16 -43 -19 -86 -15 -35 4 -69 0
-103 -11 -27 -9 -65 -16 -85 -16 -33 0 -66 -20 -66 -41 0 -5 -6 -9 -14 -9 -31
0 -172 -51 -183 -67 -10 -13 -17 -14 -37 -5 -17 8 -27 8 -32 1 -10 -17 -48
-27 -66 -18 -23 12 -82 -17 -99 -47 -10 -19 -21 -24 -51 -24 -25 0 -41 -5 -44
-15 -4 -9 -19 -15 -38 -15 -17 0 -41 -6 -52 -14 -11 -8 -49 -20 -84 -26 -41
-7 -69 -18 -77 -30 -7 -10 -27 -21 -43 -25 -17 -4 -30 -10 -30 -14 0 -5 -20
-11 -46 -14 -27 -3 -50 -12 -58 -22 -8 -11 -28 -19 -54 -20 -23 -1 -52 -11
-68 -24 -14 -11 -40 -21 -56 -21 -16 0 -31 -6 -34 -15 -4 -8 -14 -15 -25 -15
-34 0 -129 -41 -139 -61 -6 -10 -16 -19 -23 -19 -7 0 -49 -18 -93 -40 -43 -22
-85 -40 -91 -40 -7 0 -20 -11 -29 -25 -18 -28 -90 -65 -124 -65 -12 0 -29 4
-39 9 -14 8 -17 4 -19 -22 -3 -35 -16 -47 -53 -47 -15 0 -37 -12 -53 -29 -16
-16 -39 -32 -53 -35 -14 -4 -21 -11 -17 -18 5 -7 2 -9 -8 -5 -10 3 -24 -4 -37
-18 -18 -22 -26 -24 -73 -19 -45 5 -50 4 -40 -9 16 -19 7 -42 -24 -55 -13 -7
-24 -16 -24 -21 0 -4 -19 -11 -41 -15 -23 -4 -39 -9 -35 -13 11 -11 -92 -73
-122 -73 -29 0 -54 -20 -66 -53 -3 -11 -15 -21 -26 -24 -11 -3 -20 -9 -20 -14
0 -5 -18 -12 -39 -15 -26 -4 -50 -17 -70 -38 -16 -17 -36 -37 -43 -43 -7 -7
-17 -17 -23 -23 -16 -18 -163 -110 -176 -110 -13 0 -48 -41 -49 -57 0 -7 -11
-15 -24 -19 -13 -3 -26 -14 -29 -24 -3 -10 -22 -27 -43 -38 -22 -11 -61 -45
-89 -76 -38 -43 -55 -55 -73 -53 -13 2 -27 9 -31 15 -8 13 -111 13 -111 0 0
-4 5 -8 11 -8 6 0 8 -7 5 -15 -3 -8 -9 -22 -12 -30 -3 -8 -1 -15 5 -15 6 0 11
7 11 16 0 15 2 15 26 -1 14 -9 29 -14 32 -10 4 4 -1 11 -11 16 -21 12 -13 29
14 29 29 0 25 -52 -6 -81 -13 -13 -25 -32 -25 -41 0 -23 -49 -36 -61 -17 -6
10 -9 4 -9 -18 0 -29 -5 -35 -43 -53 -45 -21 -79 -57 -91 -98 -4 -13 -19 -27
-32 -32 -13 -5 -24 -17 -24 -25 0 -9 -15 -22 -34 -30 -25 -11 -36 -23 -41 -44
-7 -34 -25 -55 -77 -94 -26 -19 -38 -36 -38 -53 0 -13 5 -24 10 -24 17 0 11
-26 -10 -45 -14 -13 -20 -31 -20 -60 0 -31 -5 -45 -16 -49 -9 -4 -18 -5 -18
-4 -1 2 -8 14 -14 28 -12 23 -12 22 -7 -15 4 -36 1 -43 -26 -66 -27 -22 -31
-32 -32 -77 -1 -50 -19 -77 -31 -46 -6 16 -46 19 -46 3 0 -6 9 -13 20 -16 28
-8 26 -48 -5 -75 -16 -13 -25 -32 -25 -50 0 -15 -4 -28 -9 -28 -5 0 -13 -26
-16 -57 -6 -47 -14 -65 -41 -93 -31 -32 -34 -41 -38 -111 -2 -42 -11 -90 -20
-107 -9 -17 -16 -52 -15 -79 0 -26 0 -57 -1 -68 -1 -11 1 -29 4 -40 4 -11 2
-26 -3 -34 -8 -12 -12 -12 -25 -2 -14 12 -16 10 -16 -8 0 -13 6 -21 18 -21 15
0 17 -14 17 -158 0 -169 -16 -221 -26 -85 l-5 78 -2 -75 c-1 -46 3 -81 9 -87
11 -11 18 -100 19 -251 0 -46 3 -63 13 -60 8 3 13 29 14 73 2 70 13 105 13 42
0 -20 4 -38 9 -41 5 -4 12 -30 16 -59 12 -98 28 -162 45 -177 9 -8 23 -34 30
-58 7 -23 19 -47 27 -53 7 -6 13 -22 13 -34 0 -32 25 -89 65 -146 19 -27 35
-55 35 -63 0 -8 7 -16 15 -20 17 -6 21 -36 5 -36 -5 0 -10 -9 -10 -20 0 -11 5
-20 10 -20 6 0 10 7 10 16 0 18 20 14 31 -7 4 -8 17 -35 28 -61 14 -31 29 -50
43 -53 26 -7 48 -35 68 -85 7 -19 25 -47 38 -63 25 -26 25 -27 6 -42 -10 -8
-25 -15 -31 -15 -7 0 -13 -9 -13 -20 0 -11 -5 -20 -11 -20 -12 0 -38 -29 -39
-42 0 -14 31 -8 36 6 3 8 19 19 35 25 16 5 29 17 29 25 0 9 5 16 11 16 5 0 7
5 4 10 -11 17 5 11 51 -21 44 -30 45 -31 30 -55 -24 -35 -20 -41 23 -41 33 0
46 -8 89 -49 99 -97 138 -131 161 -144 30 -16 81 -70 81 -87 0 -20 43 -43 82
-43 29 0 41 -6 54 -25 9 -14 27 -28 40 -31 13 -3 28 -12 35 -20 6 -8 20 -14
30 -14 11 0 19 -7 19 -15 0 -8 20 -35 44 -60 34 -34 56 -48 94 -57 53 -12 73
-37 46 -59 -15 -13 -19 -69 -5 -69 5 0 15 14 23 30 11 26 17 30 38 25 14 -3
34 -16 45 -29 11 -13 45 -31 76 -40 31 -9 62 -23 69 -31 7 -8 22 -15 33 -15
11 0 35 -11 53 -25 18 -14 37 -25 43 -25 6 0 11 -4 11 -8 0 -5 18 -15 40 -22
34 -11 40 -17 40 -42 0 -23 4 -28 25 -28 14 0 25 5 25 10 0 12 47 13 54 1 3
-5 21 -12 39 -15 22 -4 39 -15 47 -31 7 -14 32 -32 57 -41 40 -16 44 -20 41
-48 -2 -23 1 -32 15 -34 13 -3 17 3 17 27 0 33 14 41 28 16 10 -18 115 -48
140 -41 11 4 31 -6 52 -24 19 -17 40 -35 47 -40 17 -14 60 4 66 27 4 14 5 12
6 -5 1 -23 3 -24 62 -17 39 5 68 14 80 26 10 10 24 19 30 19 6 0 37 23 69 50
32 27 63 50 70 50 7 0 28 17 46 37 34 37 34 37 63 20 15 -9 31 -14 35 -10 13
13 5 32 -15 35 -18 3 -19 5 -5 23 14 17 17 18 25 5 9 -13 12 -13 28 3 11 10
13 17 5 17 -45 0 49 72 122 93 17 5 35 15 40 22 6 8 24 15 40 17 28 3 51 28
26 28 -6 0 -18 6 -25 14 -12 12 -11 16 4 30 24 22 48 20 56 -4 9 -28 25 -25
25 4 0 13 -8 27 -17 30 -15 6 -14 9 5 28 21 21 22 21 41 4 27 -24 51 -14 51
21 0 21 -3 24 -10 13 -5 -8 -12 -11 -16 -7 -9 9 55 66 74 67 7 0 11 -4 7 -9
-3 -5 -1 -12 3 -15 10 -6 32 36 32 59 0 8 7 15 15 15 8 0 32 18 52 41 39 43
71 61 113 63 20 1 26 7 28 31 2 16 9 33 15 37 8 5 8 8 -2 8 -8 0 1 11 19 25
38 28 54 17 24 -16 -16 -18 -16 -19 4 -19 11 0 23 4 26 9 3 4 18 6 33 4 20 -3
24 -2 14 5 -11 8 -10 12 5 21 16 9 17 12 4 21 -8 5 -23 10 -32 10 -24 0 -23
17 2 25 11 3 38 22 61 41 22 19 45 34 50 34 5 0 9 7 9 15 0 8 6 15 14 15 8 0
18 9 21 20 3 11 13 20 22 20 17 0 52 39 53 59 0 10 9 12 34 8 39 -6 73 17 42
29 -30 11 -16 31 42 62 56 30 92 62 92 82 0 5 17 18 37 29 21 10 48 31 60 45
13 14 30 26 38 26 8 0 21 13 30 30 8 16 28 36 43 44 16 8 33 26 39 39 7 14 26
33 42 43 17 10 33 26 36 35 3 10 12 20 20 23 20 7 20 79 1 114 -52 98 -78 224
-73 353 5 104 24 293 32 317 7 20 23 14 28 -10 3 -22 4 -22 12 -4 6 13 5 21
-3 24 -27 9 6 106 41 118 10 3 22 23 28 49 12 46 44 85 75 89 14 2 21 14 25
46 3 24 10 45 15 47 17 6 124 111 124 122 0 6 4 11 9 11 5 0 11 9 14 20 3 11
14 20 24 20 11 0 39 20 62 45 23 25 48 45 55 45 8 0 16 8 19 19 4 15 18 20 78
27 41 5 62 10 47 12 -16 2 -28 8 -28 13 0 19 21 49 34 49 8 0 19 7 26 15 7 8
25 15 41 15 15 0 34 8 41 18 31 39 78 74 105 77 39 3 127 61 133 88 4 15 16
24 40 28 38 6 110 45 123 66 4 7 19 13 33 13 29 0 124 46 124 60 0 5 23 12 50
16 28 4 50 10 50 15 0 4 16 13 35 19 19 6 35 15 35 19 0 11 94 33 145 33 44 0
57 9 34 24 -17 10 36 36 89 44 23 4 42 5 42 2 0 -8 -35 -67 -42 -70 -5 -2 -8
-13 -8 -24 0 -11 -14 -33 -30 -48 -17 -16 -37 -45 -45 -65 -10 -23 -20 -33
-28 -28 -8 5 -8 2 1 -9 13 -16 8 -33 -21 -72 -35 -49 -59 -93 -64 -118 -4 -18
-14 -33 -25 -35 -10 -3 -19 -15 -20 -27 0 -11 -2 -27 -2 -34 -1 -8 -9 -19 -19
-26 -9 -7 -17 -25 -17 -40 0 -37 -25 -62 -45 -46 -13 11 -15 6 -16 -31 -1 -24
0 -58 1 -75 1 -18 -6 -36 -15 -44 -24 -20 -42 -69 -55 -151 -6 -41 -15 -78
-20 -83 -6 -6 -10 -29 -10 -53 0 -36 3 -43 20 -43 19 0 19 -1 2 -20 -10 -12
-18 -39 -18 -66 -1 -25 -7 -51 -13 -57 -6 -6 -11 -28 -11 -49 0 -27 -4 -38
-15 -38 -11 0 -15 -11 -15 -40 0 -27 -4 -40 -13 -40 -10 0 -17 -29 -25 -100
-7 -69 -17 -111 -31 -134 -20 -32 -21 -44 -17 -277 2 -134 7 -258 10 -274 3
-17 7 -88 9 -158 2 -70 7 -130 11 -134 3 -3 6 -15 6 -25 0 -10 4 -18 9 -18 5
0 12 -33 16 -74 4 -43 12 -80 20 -86 8 -6 16 -43 20 -85 5 -54 11 -75 22 -77
16 -3 60 -131 70 -201 3 -20 9 -37 13 -37 4 0 11 -12 14 -26 4 -14 20 -38 37
-53 19 -18 32 -41 36 -67 3 -21 16 -55 28 -74 12 -20 26 -50 30 -68 3 -17 11
-32 16 -32 5 0 21 -25 35 -55 15 -30 30 -55 35 -55 5 0 17 -17 26 -38 8 -20
24 -55 34 -77 9 -22 20 -53 23 -68 4 -15 11 -25 16 -22 5 3 11 -3 14 -12 3
-10 19 -32 36 -50 16 -18 30 -38 30 -46 0 -8 7 -17 15 -20 8 -4 25 -23 39 -44
13 -21 62 -78 109 -127 81 -84 85 -90 80 -124 -4 -25 -3 -33 5 -28 7 4 12 2
12 -3 0 -6 7 -11 16 -11 18 0 44 -23 44 -40 0 -7 8 -9 19 -5 21 6 34 -7 62
-62 21 -40 25 -68 9 -58 -5 3 -10 1 -10 -4 0 -14 6 -14 31 2 16 9 23 9 26 1 2
-7 12 -10 22 -7 12 3 41 -18 92 -66 41 -40 88 -75 106 -80 17 -5 51 -30 75
-55 25 -25 51 -46 58 -46 18 0 70 -50 70 -67 0 -8 6 -13 13 -12 37 5 57 -4 73
-30 10 -17 21 -28 25 -26 10 7 119 -45 119 -56 0 -5 20 -19 45 -31 25 -12 45
-25 45 -29 0 -4 24 -15 54 -24 31 -10 68 -31 88 -50 22 -22 52 -38 84 -46 27
-7 69 -23 94 -35 25 -13 52 -24 61 -24 9 0 34 -12 55 -26 21 -15 56 -29 77
-32 21 -3 41 -11 44 -18 3 -7 21 -16 41 -20 19 -4 47 -13 61 -20 14 -8 33 -14
41 -14 8 0 23 -7 34 -15 10 -8 44 -19 75 -25 31 -6 65 -15 76 -20 11 -5 48
-11 83 -14 36 -3 70 -12 78 -21 9 -8 32 -15 52 -16 51 -1 85 -7 176 -29 44
-11 94 -20 111 -20 18 0 45 -7 62 -15 24 -12 93 -15 374 -17 471 -4 659 1 659
19 0 9 19 13 68 15 98 2 156 12 178 29 17 14 219 60 245 56 13 -2 43 4 67 14
23 10 42 16 42 14 0 -3 16 1 36 10 36 15 228 66 242 64 20 -3 33 2 27 11 -3 6
2 13 12 16 10 3 26 10 37 16 10 5 41 10 67 10 27 -1 49 3 49 9 0 5 -5 9 -11 9
-5 0 -7 5 -4 11 4 6 29 8 61 5 30 -2 54 0 54 5 0 5 29 9 65 9 36 0 65 -4 65
-10 0 -5 -14 -7 -32 -3 l-33 6 23 -21 c18 -16 29 -19 46 -12 12 4 119 10 236
12 164 2 214 0 217 -9 3 -9 25 -13 60 -13 79 0 56 17 -24 19 -23 1 -33 6 -33
17 0 14 16 16 118 14 250 -5 360 0 366 16 3 7 12 14 19 14 8 0 29 8 48 17 18
9 47 16 64 14 89 -6 260 -1 263 9 2 5 21 10 43 10 21 0 39 4 39 9 0 5 21 12
48 15 26 4 60 12 76 18 23 9 31 9 34 0 4 -14 82 -16 82 -2 0 6 -11 10 -25 10
-14 0 -25 4 -25 9 0 9 29 15 110 23 14 2 25 9 25 18 0 9 -11 16 -25 18 -45 5
-57 13 -35 22 31 13 55 11 55 -4 0 -7 13 -24 29 -37 15 -13 30 -29 32 -35 3
-8 24 -2 62 17 42 20 65 26 80 20 40 -15 87 16 87 56 0 29 16 30 23 2 5 -19
10 -21 64 -14 73 8 103 15 103 25 0 17 79 42 112 36 58 -13 103 -12 101 1 -4
18 72 36 96 23 29 -15 59 -12 89 9 32 23 117 37 127 21 3 -5 14 -10 24 -10 22
0 91 58 91 76 0 10 15 14 53 14 32 0 61 6 76 16 18 13 25 14 31 5 10 -18 65
-10 65 9 0 8 8 16 18 18 9 2 17 -1 17 -7 0 -6 -6 -11 -12 -11 -26 0 17 -20 45
-20 29 0 34 9 15 28 -17 17 19 16 52 -1 33 -18 70 -2 70 29 0 13 5 26 10 29 6
3 10 15 10 25 0 10 5 22 10 25 6 4 10 3 9 -2 -6 -33 2 -43 31 -41 17 1 30 5
30 9 0 7 57 19 93 20 9 0 17 6 17 14 0 7 15 17 33 20 17 4 37 11 42 15 6 5 21
8 35 8 50 -1 129 19 146 36 13 14 27 16 63 11 37 -5 56 -1 98 20 29 14 57 25
63 25 5 0 10 6 10 14 0 10 20 16 70 21 94 9 103 23 28 39 -49 11 -30 26 30 25
32 -1 67 3 78 8 10 6 41 14 68 18 64 9 92 22 104 50 14 30 63 52 128 58 40 3
61 12 95 39 41 32 47 34 82 25 33 -8 41 -6 61 12 12 11 30 21 38 21 9 0 23 6
30 13 29 29 71 50 98 49 20 0 31 5 35 19 4 10 12 19 18 19 7 0 29 11 48 24 20
14 49 28 63 32 15 3 33 15 39 25 7 11 16 19 20 19 5 0 15 7 23 15 9 8 24 15
34 15 10 0 28 12 39 26 13 16 27 24 36 20 19 -7 19 -30 0 -50 -21 -21 -19 -28
8 -24 16 2 22 10 22 30 1 32 -2 29 57 57 26 12 50 31 53 41 6 19 43 31 105 34
19 0 30 6 30 16 1 8 28 28 63 45 34 16 84 51 110 77 38 37 56 48 81 48 24 0
36 6 46 24 7 14 25 30 40 36 16 7 31 22 34 36 5 19 13 24 40 24 19 0 45 9 60
21 14 11 41 25 60 30 20 6 36 17 39 29 6 22 52 44 75 35 7 -3 16 -14 19 -25 3
-11 9 -20 14 -20 15 0 10 37 -6 50 -16 14 -4 50 18 50 7 0 28 16 47 36 19 20
52 45 72 55 25 13 38 26 38 39 0 13 7 20 19 20 10 0 30 9 44 20 14 11 30 20
36 20 6 0 20 13 33 30 12 16 30 32 40 36 23 7 148 134 148 150 0 6 15 15 33
18 32 6 78 46 90 79 4 11 16 21 27 24 11 3 20 12 20 19 0 9 11 14 30 14 17 0
33 0 38 1 12 0 29 41 37 85 4 25 16 50 31 63 15 13 24 32 24 51 0 23 4 30 20
30 11 0 27 12 37 28 9 15 33 43 54 63 20 19 39 44 41 55 2 11 13 20 26 22 12
2 27 13 34 25 6 12 19 28 30 35 10 7 21 31 24 54 5 28 13 42 25 45 11 3 19 12
19 19 0 8 11 24 24 35 15 13 26 37 31 65 3 24 10 44 15 44 4 0 10 15 13 33 4
31 22 85 37 117 4 8 11 13 16 10 10 -6 23 56 23 113 1 24 6 39 16 42 8 3 22 7
30 10 12 3 10 11 -10 41 l-25 37 32 20 c42 25 49 36 35 58 -8 13 -8 33 1 77
16 76 15 82 -5 82 -17 0 -18 13 -15 152 2 112 7 156 16 163 9 7 15 44 18 110
4 90 3 105 -18 147 -16 31 -20 49 -13 53 26 17 -11 175 -41 175 -6 0 -10 34
-10 79 0 44 -4 83 -10 86 -5 3 -10 22 -10 41 0 24 -6 38 -21 46 -25 16 -55 75
-64 128 -8 47 -46 97 -77 102 -17 2 -24 13 -30 42 -5 23 -19 47 -35 59 -56 44
-70 63 -77 101 -4 22 -16 51 -27 64 -10 14 -19 31 -19 38 0 7 -9 14 -21 16
-14 2 -25 15 -33 38 -7 20 -33 57 -59 83 -26 25 -47 53 -47 61 0 8 -12 21 -27
28 -17 8 -31 26 -37 46 -5 19 -15 32 -25 32 -21 0 -61 43 -61 64 0 10 -13 22
-31 28 -17 6 -34 21 -39 34 -5 13 -17 24 -26 24 -26 0 -70 53 -78 92 -7 40
-16 46 -67 43 -30 -2 -37 2 -46 25 -7 19 -20 29 -41 33 -24 5 -33 13 -38 34
-7 30 -71 103 -89 103 -7 0 -20 9 -30 20 -10 11 -24 20 -32 20 -12 0 -18 25
-14 58 1 7 -4 12 -11 11 -38 -5 -54 3 -65 31 -8 22 -18 30 -35 30 -13 0 -29 5
-35 11 -6 6 -26 14 -45 18 -24 5 -34 13 -36 29 -2 14 -15 27 -35 36 -18 7 -38
20 -45 29 -8 9 -30 21 -50 28 -36 12 -59 31 -96 84 -15 21 -25 26 -55 24 -59
-3 -69 0 -73 23 -2 15 -14 26 -33 33 -16 5 -32 13 -35 16 -3 4 -20 10 -37 14
-18 3 -33 11 -33 15 0 12 -52 60 -65 60 -6 0 -27 14 -48 31 -20 17 -41 27 -47
24 -6 -3 -25 1 -42 10 -18 8 -49 18 -70 21 -22 4 -40 13 -43 23 -3 9 -20 23
-38 31 -17 8 -36 25 -42 38 -7 16 -18 22 -40 22 -16 0 -52 12 -80 25 -27 14
-65 25 -82 25 -26 0 -34 5 -39 25 -4 17 -17 28 -42 36 -21 6 -50 21 -65 32
-17 11 -49 21 -77 22 -26 2 -61 10 -77 18 -15 9 -36 18 -45 21 -10 3 -18 15
-18 28 0 13 -5 30 -10 38 -8 13 -10 12 -10 -2 0 -10 -4 -18 -10 -18 -5 0 -10
-9 -10 -20 0 -26 -36 -27 -49 -1 -6 10 -23 24 -38 30 -16 6 -48 24 -73 40 -51
33 -120 42 -120 16 0 -8 -4 -15 -8 -15 -14 0 -32 23 -32 41 0 19 -28 29 -81
29 -25 0 -43 7 -59 25 -25 26 -77 48 -119 47 -39 0 -122 41 -161 79 -33 33
-39 35 -103 34 -56 -1 -70 3 -78 17 -5 10 -16 18 -24 18 -8 0 -31 11 -51 25
-43 29 -61 31 -85 9 -14 -12 -22 -13 -39 -4 -27 15 -21 34 13 38 15 2 27 8 27
13 0 11 -37 12 -44 1 -8 -14 -108 -15 -117 -1 -4 7 -40 14 -85 17 -44 3 -81 8
-84 11 -22 27 -88 63 -132 72 -61 13 -98 33 -98 54 0 19 -76 21 -83 3 -8 -24
-74 20 -81 53 -7 38 -36 44 -144 30 -153 -21 -209 -17 -292 23 -30 14 -67 26
-82 26 -15 0 -30 5 -33 10 -3 6 -42 10 -85 10 -43 0 -82 5 -85 10 -3 6 -23 10
-43 10 -20 0 -53 3 -73 6 -31 5 -38 11 -43 38 -5 24 -9 28 -16 16 -9 -13 -10
-13 -10 0 0 13 -1 13 -10 0 -9 -13 -10 -13 -10 0 0 13 -1 13 -10 0 -9 -13 -10
-13 -10 0 0 13 -1 13 -10 0 -9 -13 -10 -13 -10 0 0 13 -1 13 -10 0 -9 -13 -10
-13 -10 0 0 13 -1 13 -10 0 -7 -11 -10 -12 -10 -2 0 10 -4 10 -16 -2 -25 -25
-157 -22 -193 5 -22 16 -46 21 -127 24 -54 2 -111 8 -127 14 -16 6 -60 8 -107
5 -46 -4 -86 -2 -93 3 -14 11 -87 32 -132 38 -16 2 -61 8 -100 14 -38 6 -125
11 -192 11 -114 0 -122 1 -128 20 -6 20 -13 21 -120 19 -99 -2 -117 0 -134 15
-19 17 -27 18 -103 7 -46 -7 -91 -13 -100 -14 -10 -1 -18 -6 -18 -12 -1 -5 -9
6 -18 25 -21 43 -60 65 -82 46 -30 -26 -85 -37 -131 -27 -24 6 -74 11 -110 11
-47 0 -70 4 -79 15 -9 11 -32 15 -83 15 -52 0 -73 4 -81 16 -11 14 -18 14 -75
-1 -47 -12 -66 -13 -76 -5 -8 7 -18 9 -23 6 -24 -14 -209 -15 -262 -1 -69 19
-197 20 -203 3 -3 -10 -7 -10 -20 0 -10 8 -38 12 -76 11 -34 -1 -64 0 -67 3
-3 4 -18 3 -33 -2 -16 -4 -46 -5 -67 -1 -22 4 -60 1 -89 -6z m-1376 -49 c-16
-19 -29 -17 -29 4 0 26 11 34 27 21 10 -9 10 -15 2 -25z m666 -27 c55 1 137 4
183 8 53 4 82 3 82 -4 0 -6 105 -9 303 -8 245 2 307 -1 320 -12 15 -11 17 -11
17 1 0 12 31 14 203 12 111 -1 247 -7 302 -13 147 -17 184 -20 350 -26 83 -3
182 -13 222 -21 69 -15 72 -15 92 5 l21 21 44 -22 c44 -21 45 -21 73 -3 33 22
53 27 53 14 0 -6 5 -7 10 -4 6 3 10 2 10 -3 0 -18 56 -32 154 -37 55 -2 115
-10 134 -16 64 -21 12 -33 -115 -25 -112 7 -113 7 -113 -15 0 -22 -1 -22 -117
-15 -194 12 -264 20 -261 31 3 11 82 10 161 0 31 -5 53 -3 60 4 25 25 -12 31
-166 32 -94 0 -157 4 -157 9 0 6 -39 10 -92 10 -111 0 -108 -13 5 -20 57 -4
82 -9 85 -19 4 -12 -14 -13 -109 -8 -63 4 -181 9 -264 13 -155 5 -202 11 -191
21 11 12 -17 33 -44 33 -19 0 -29 -6 -33 -19 -4 -17 -9 -18 -48 -10 -80 17
-136 22 -119 10 11 -8 -93 -11 -360 -11 -206 0 -567 -3 -802 -7 l-428 -6 0 21
c0 17 -6 22 -27 22 -16 0 -35 5 -43 10 -32 20 8 35 98 37 48 1 134 6 192 11
58 5 130 6 160 4 30 -3 100 -5 155 -5z m-773 -14 c18 -16 21 -16 48 0 28 17
29 17 32 -5 2 -13 11 -24 21 -26 21 -4 57 -37 57 -52 0 -5 -17 -10 -38 -10
-32 0 -44 6 -67 34 -27 33 -30 33 -52 19 -13 -8 -23 -23 -23 -32 0 -14 2 -14
10 -1 7 11 10 11 10 2 0 -7 5 -10 10 -7 6 3 10 1 10 -4 0 -6 -21 -11 -50 -11
-54 0 -67 14 -24 24 20 5 24 10 15 19 -14 14 -14 40 1 55 16 16 18 15 40 -5z
m-558 -68 c-4 -10 -20 -15 -50 -15 -48 0 -60 16 -16 23 59 9 72 7 66 -8z
m-164 -27 c0 -21 2 -21 110 -15 98 6 138 0 111 -17 -24 -15 -516 -9 -638 8
-27 4 -25 16 3 17 16 0 81 6 144 14 63 7 150 13 193 14 73 1 77 0 77 -21z
m4211 -9 c12 -6 18 -17 15 -25 -3 -8 -1 -14 4 -14 6 0 10 7 10 16 0 12 4 14
13 6 25 -20 157 -35 157 -18 0 7 3 8 8 1 4 -6 14 -10 22 -10 8 1 21 -3 27 -8
7 -5 29 -6 49 -3 25 5 49 2 80 -11 49 -20 54 -28 24 -38 -11 -3 -20 -11 -20
-17 0 -11 -71 -2 -80 11 -20 26 -60 37 -133 36 -43 -1 -80 -5 -83 -8 -4 -3
-24 3 -45 14 -46 23 -83 21 -105 -6 -8 -11 -13 -14 -9 -8 4 9 -5 11 -36 7 -23
-4 -39 -2 -36 2 3 5 -34 7 -81 6 -71 -3 -85 -1 -74 9 8 9 45 14 110 15 134 2
132 2 132 22 0 33 17 40 51 21z m-3816 -9 c-28 -12 -75 -12 -75 0 0 6 21 10
48 9 35 0 42 -3 27 -9z m-1109 -15 c-3 -9 -1 -15 7 -14 6 1 24 1 40 0 24 -1
27 -5 27 -34 0 -32 -1 -33 -37 -29 -20 3 -43 10 -50 18 -16 16 -17 46 -1 62
16 16 21 15 14 -3z m147 -6 c16 -9 22 -9 25 0 6 18 62 14 62 -5 0 -13 12 -15
80 -13 49 2 84 -1 91 -8 11 -11 4 -13 -114 -29 -27 -4 -52 -2 -60 4 -6 5 -40
13 -74 17 -36 4 -64 12 -67 20 -10 26 20 33 57 14z m-228 -39 c3 -5 16 -10 28
-10 14 0 26 -10 33 -25 11 -22 9 -24 -15 -29 -14 -3 -46 -3 -71 0 -121 15
-140 16 -140 5 0 -10 14 -15 33 -12 4 0 7 -4 7 -10 0 -6 -16 -8 -44 -4 -26 4
-59 2 -80 -5 -36 -12 -76 -6 -76 11 0 5 15 9 34 9 19 0 38 5 41 10 4 6 -8 10
-29 10 -19 0 -38 -4 -41 -10 -8 -12 -92 -13 -99 -1 -5 7 24 18 69 26 6 1 18 5
27 9 9 4 46 6 83 4 36 -1 65 0 65 3 0 5 100 24 147 27 12 1 25 -2 28 -8z
m5505 -10 c22 -14 5 -23 -31 -15 -23 5 -28 10 -18 16 18 11 30 11 49 -1z m172
-27 c56 -13 75 -14 102 -5 43 16 61 15 75 -2 11 -14 76 -27 151 -32 19 -1 53
-9 75 -18 22 -8 52 -15 67 -16 24 0 52 -19 31 -21 -11 -1 -33 -6 -65 -14 -19
-5 -29 -2 -35 9 -6 11 -31 18 -86 22 -68 6 -77 9 -77 27 0 17 -5 19 -36 14
-20 -3 -39 -9 -42 -12 -9 -9 19 -25 44 -25 11 0 39 -9 62 -20 22 -11 51 -20
64 -21 22 0 22 -1 2 -9 -13 -5 -60 -1 -125 11 -57 10 -122 19 -144 19 -22 0
-56 5 -75 11 -19 6 -48 13 -65 15 -16 3 -46 9 -65 15 -19 5 -60 9 -90 10 -30
1 -46 4 -35 6 11 3 23 10 26 15 8 12 61 14 111 4 31 -6 37 -4 43 14 8 24 1 24
87 3z m-6162 -24 c0 -5 -13 -15 -30 -20 -34 -12 -38 -24 -13 -33 34 -13 -5
-26 -137 -46 -74 -10 -149 -22 -166 -26 -22 -4 -40 -1 -57 11 -28 18 -68 17
-75 -2 -2 -9 8 -13 33 -13 32 0 36 -2 25 -15 -7 -8 -24 -15 -39 -14 -14 0 -53
-3 -86 -7 -68 -7 -68 9 0 25 24 5 31 9 18 10 -13 1 -23 6 -23 12 0 6 7 8 17 5
11 -5 25 3 43 23 21 22 33 28 54 24 15 -3 30 -12 33 -19 7 -19 66 -18 132 2
29 8 65 12 81 9 19 -4 29 -2 33 8 3 8 20 17 39 21 31 7 32 8 14 21 -11 8 -29
15 -40 16 -18 1 -18 2 4 9 38 12 140 12 140 -1z m-177 -16 c4 -3 -5 -12 -19
-20 -48 -24 -107 -12 -62 14 25 13 71 17 81 6z m-143 -17 c0 -9 -7 -12 -21 -9
-16 4 -17 8 -7 14 19 13 28 11 28 -5z m409 -12 c9 -9 -10 -17 -54 -21 -49 -6
-63 11 -22 26 21 8 66 5 76 -5z m6716 -29 c40 -11 62 -12 69 -5 18 18 52 10
161 -41 11 -5 54 -10 95 -11 66 -3 75 -5 72 -21 -3 -16 4 -17 76 -11 68 6 80
4 85 -10 5 -11 14 -15 30 -11 15 4 35 -2 60 -19 21 -15 42 -26 47 -26 5 0 10
-10 12 -22 4 -31 56 -36 111 -9 39 18 47 19 115 7 80 -14 94 -21 63 -31 -12
-3 -19 -11 -16 -16 8 -12 48 -12 61 1 6 6 15 6 24 0 12 -8 10 -10 -7 -10 -13
0 -23 -5 -23 -12 0 -8 30 -9 110 -4 l110 6 0 -34 c0 -30 4 -34 33 -41 17 -4
37 -9 43 -10 6 -2 17 5 24 15 11 15 18 16 54 7 22 -6 50 -16 61 -24 11 -7 33
-13 50 -13 16 -1 41 -7 55 -15 14 -8 42 -14 63 -15 32 0 37 -3 37 -24 0 -21
-6 -25 -41 -31 -29 -5 -38 -10 -28 -16 24 -15 49 -10 83 16 51 39 78 34 105
-21 l23 -45 19 20 c25 27 32 26 65 -4 15 -14 39 -28 53 -31 61 -13 76 -21 74
-40 -1 -14 15 -27 65 -51 77 -38 88 -39 114 -16 23 20 85 19 108 -3 72 -66 84
-72 112 -58 24 13 31 12 70 -9 24 -12 62 -29 86 -37 24 -7 49 -22 56 -32 9
-12 36 -23 77 -31 35 -6 71 -19 80 -28 11 -11 42 -20 86 -24 99 -9 98 -9 96
-31 -2 -18 3 -19 62 -16 55 3 64 2 69 -15 3 -10 21 -23 39 -28 20 -6 37 -21
45 -38 9 -18 24 -30 44 -34 16 -3 32 -12 35 -19 3 -8 15 -14 27 -14 33 0 66
-11 66 -23 0 -22 51 -57 74 -51 16 4 32 -2 52 -19 16 -13 48 -28 72 -32 23 -4
42 -10 42 -15 0 -4 14 -13 32 -19 18 -6 43 -21 56 -34 14 -13 36 -22 54 -22
26 0 32 -5 42 -35 7 -22 18 -36 31 -38 42 -6 101 -38 137 -74 22 -22 51 -40
72 -44 20 -3 36 -10 36 -15 0 -5 15 -15 33 -23 32 -14 87 -60 87 -74 0 -12 60
-42 83 -42 12 0 35 -13 50 -29 15 -16 43 -35 62 -41 22 -7 41 -23 50 -40 8
-16 23 -31 34 -35 11 -3 24 -19 30 -35 5 -17 21 -34 34 -39 13 -5 27 -17 30
-25 4 -9 13 -16 21 -16 8 0 24 -21 37 -47 25 -52 35 -63 62 -63 23 0 77 -40
77 -57 0 -7 -11 -18 -25 -23 -14 -5 -25 -15 -26 -22 -1 -20 -9 -61 -13 -65 -1
-2 -25 17 -52 42 -27 24 -64 52 -81 60 -21 10 -33 23 -33 36 0 12 -10 23 -27
30 -44 16 -73 50 -79 91 -6 33 -10 38 -34 38 -15 0 -54 16 -85 35 -32 19 -61
32 -65 30 -5 -3 -21 10 -37 28 -16 18 -35 31 -43 29 -10 -4 -12 4 -7 32 5 31
3 36 -13 36 -11 0 -25 6 -32 13 -7 8 -20 12 -28 10 -21 -6 -87 33 -101 58 -5
11 -18 19 -28 19 -25 0 -43 24 -34 46 6 16 4 17 -8 7 -12 -10 -24 -6 -65 23
-27 20 -72 46 -99 59 -28 14 -60 33 -72 45 -12 11 -29 20 -37 20 -7 0 -16 7
-20 15 -3 8 -14 15 -24 15 -11 0 -39 15 -63 33 -66 49 -96 67 -114 67 -9 0
-13 4 -10 10 3 5 0 7 -8 4 -17 -6 -49 34 -40 50 3 6 3 8 -2 4 -4 -4 -20 1 -35
12 -16 11 -33 20 -39 20 -8 0 -9 6 -2 19 12 21 5 31 -21 31 -11 0 -18 -7 -18
-20 0 -11 5 -20 10 -20 6 0 10 -7 10 -15 0 -8 6 -15 13 -16 8 0 8 -2 1 -5 -7
-3 -33 9 -60 26 -26 16 -56 30 -66 30 -10 0 -18 7 -18 16 0 13 7 15 36 11 l36
-6 -23 19 c-27 24 -37 25 -60 5 -25 -24 -65 -10 -72 24 -5 23 -13 29 -44 34
-21 4 -50 7 -64 7 -14 0 -46 13 -70 30 -24 16 -53 30 -65 30 -30 0 -114 30
-114 41 0 5 -10 9 -22 9 -12 0 -32 10 -45 21 -14 14 -40 24 -72 27 -28 2 -48
8 -46 13 3 4 -9 9 -27 11 -17 2 -33 9 -36 16 -5 15 22 16 47 1 24 -16 88 -3
100 19 8 15 2 17 -68 16 -42 0 -89 -4 -104 -8 -34 -10 -87 3 -172 44 -64 30
-241 90 -266 90 -8 0 -31 9 -52 20 -20 11 -47 20 -59 20 -19 0 -20 2 -8 11 11
7 5 8 -21 3 -22 -3 -39 -2 -43 5 -4 6 -14 11 -22 11 -9 0 -22 7 -30 15 -9 8
-27 17 -42 20 -15 3 -46 10 -70 15 -23 6 -54 10 -67 10 -14 0 -33 4 -43 10
-23 13 -247 81 -297 90 -42 7 -105 26 -142 43 -12 5 -28 7 -37 4 -8 -3 -36 5
-61 19 -25 13 -56 24 -69 24 -34 0 -178 45 -170 53 4 4 0 7 -9 7 -9 0 -17 -5
-17 -11 0 -7 -8 -6 -22 3 -13 8 -34 18 -48 21 -14 3 -36 16 -48 28 -22 20 -24
20 -36 4 -12 -17 -17 -17 -97 -1 -46 9 -104 23 -129 30 -25 8 -79 21 -120 29
-41 9 -104 22 -140 31 -36 8 -83 16 -105 16 -38 1 -149 26 -132 31 4 1 12 3
17 4 6 1 21 3 35 4 21 1 25 6 25 31 0 35 4 36 85 15z m-245 -35 c0 -5 -4 -10
-9 -10 -6 0 -13 5 -16 10 -3 6 1 10 9 10 9 0 16 -4 16 -10z m-7295 -30 c3 -5
13 -6 23 -3 13 4 13 2 -3 -10 -11 -9 -35 -17 -52 -17 -22 0 -33 -5 -33 -14 0
-8 -6 -17 -12 -20 -7 -3 2 -4 20 -3 54 6 46 -11 -8 -18 -28 -4 -73 -13 -100
-20 -29 -8 -52 -9 -56 -4 -3 5 -12 9 -21 9 -19 0 -100 -38 -108 -50 -3 -4 -35
-5 -72 -2 -60 5 -66 3 -59 -13 5 -14 2 -16 -16 -11 -13 3 -31 6 -41 6 -10 0
-15 5 -12 10 3 6 -4 10 -17 10 l-23 0 23 -18 c27 -21 20 -32 -20 -32 -16 0
-43 -7 -59 -16 -34 -17 -80 -16 -86 3 -3 7 13 16 39 21 24 6 34 10 23 11 -11
1 -27 6 -35 11 -13 9 -13 11 0 20 8 5 31 10 51 10 19 0 39 4 45 9 11 12 163
41 213 41 20 0 45 7 55 15 28 21 69 19 99 -5 14 -11 31 -20 39 -19 7 0 3 4
-10 10 -34 13 -17 29 32 29 50 0 62 8 38 26 -15 11 -14 13 13 19 17 3 39 10
50 15 27 12 73 12 80 0z m-761 -175 c-10 -8 -34 -15 -52 -15 -19 0 -47 -9 -63
-21 -16 -11 -42 -20 -57 -19 -63 4 -92 0 -92 -14 0 -22 -17 -28 -42 -15 l-22
12 23 19 c14 11 31 16 43 13 10 -4 34 -1 53 5 31 10 193 46 219 49 6 1 1 -6
-10 -14z m-39 -75 c6 -10 -51 -27 -182 -55 -95 -21 -198 -13 -198 15 0 21 53
25 73 7 10 -9 29 -18 44 -22 21 -5 29 -2 38 14 6 12 19 21 30 21 10 0 21 4 24
9 4 5 26 8 51 6 24 -2 47 0 49 4 7 11 64 12 71 1z m-533 -72 c-20 -20 -14 -30
16 -26 15 2 26 8 25 15 -3 17 94 28 112 13 8 -7 24 -10 36 -7 13 3 19 1 16 -6
-2 -7 -15 -11 -28 -9 -55 8 -82 4 -91 -12 -5 -8 -19 -21 -31 -27 -24 -13 -153
-45 -237 -59 -30 -5 -59 -15 -65 -23 -13 -18 -71 -55 -62 -39 5 6 4 12 -2 12
-6 0 -11 -4 -11 -10 0 -5 -4 -10 -10 -10 -5 0 -10 7 -10 15 0 9 -11 20 -25 25
-14 5 -25 16 -25 24 0 18 48 30 64 17 13 -11 84 18 119 47 14 13 21 13 41 2
29 -15 76 -6 76 15 0 11 -11 15 -41 15 -22 0 -38 4 -35 9 4 5 31 9 62 9 30 0
60 4 67 11 6 6 20 11 31 11 16 0 17 -3 8 -12z m-433 -152 c10 -11 4 -15 -31
-21 -24 -3 -74 -8 -113 -10 -54 -3 -63 -2 -40 5 17 5 38 7 48 4 20 -6 77 4 76
14 -3 17 3 22 25 22 13 0 29 -6 35 -14z m11484 -17 c48 -13 39 -29 -18 -29
-45 0 -68 16 -44 31 18 11 17 11 62 -2z m-11415 -11 c-4 -11 -88 -46 -116 -47
-30 -2 -4 33 33 45 53 16 88 17 83 2z m-248 -52 c39 -5 40 -6 40 -14 0 -14
-48 -32 -84 -32 -20 0 -40 -8 -51 -20 -28 -31 -55 -26 -55 9 0 24 7 33 38 49
21 11 48 18 62 15 14 -2 36 -6 50 -7z m-200 -51 c0 -19 -5 -25 -21 -25 -15 0
-19 -4 -14 -19 5 -16 -8 -26 -77 -60 -72 -35 -157 -60 -180 -53 -5 1 -8 -5 -8
-13 0 -8 -4 -15 -10 -15 -5 0 -10 7 -10 15 0 7 -7 18 -16 23 -9 5 -14 18 -12
28 3 14 11 18 32 16 29 -3 60 14 51 29 -8 12 29 29 63 29 16 0 35 7 42 15 7 8
24 15 39 15 14 1 42 9 61 20 47 26 60 25 60 -5z m31 -50 c0 -5 -9 -11 -21 -13
-20 -3 -27 8 -13 22 10 9 34 3 34 -9z m-394 -112 c4 -10 11 -22 17 -26 7 -5 4
-6 -7 -3 -10 3 -43 6 -73 6 -47 0 -54 2 -54 20 0 18 7 20 55 20 44 0 57 -4 62
-17z m-133 -19 c9 -3 16 -13 16 -21 0 -13 21 -13 70 1 3 0 6 -3 8 -8 2 -6 -14
-15 -35 -21 -21 -7 -65 -26 -97 -43 -43 -23 -72 -32 -107 -32 -42 0 -51 -4
-70 -29 -12 -17 -40 -38 -63 -49 -23 -11 -61 -29 -86 -41 -25 -11 -49 -21 -53
-21 -4 0 -20 -8 -34 -17 -15 -10 -43 -23 -62 -29 -25 -7 -36 -16 -35 -27 1
-11 -13 -25 -36 -37 -21 -11 -41 -24 -45 -30 -3 -5 -13 -10 -21 -10 -8 0 -23
-9 -34 -20 -24 -24 -47 -25 -72 -4 -13 13 -21 14 -31 6 -7 -6 -22 -9 -33 -6
-16 4 -25 -2 -37 -28 -16 -32 -15 -33 4 -36 11 -2 29 4 38 12 21 19 54 21 49
4 -3 -7 -16 -15 -30 -19 -14 -4 -39 -16 -54 -28 -24 -17 -35 -19 -62 -12 -33
10 -33 10 -27 -19 5 -23 2 -29 -15 -35 -12 -4 -27 -2 -33 4 -20 20 -36 12 -42
-22 -4 -21 -15 -36 -33 -45 -40 -19 -47 -14 -18 13 14 13 26 29 26 35 0 16
-37 12 -44 -5 -3 -8 -14 -15 -25 -15 -11 0 -26 -7 -35 -15 -8 -8 -25 -15 -38
-15 -15 0 -33 -11 -46 -30 -13 -16 -21 -30 -19 -30 10 0 87 41 92 49 8 13 35
2 35 -14 0 -7 -14 -25 -32 -40 -25 -22 -38 -26 -67 -21 -21 3 -28 2 -18 -2 18
-7 18 -9 2 -22 -14 -12 -17 -10 -22 10 l-6 24 -9 -23 c-7 -19 -14 -22 -50 -19
-77 5 -59 62 22 67 12 1 20 8 20 19 0 12 21 28 63 49 83 43 120 66 129 79 4 7
24 15 43 18 19 4 35 12 35 19 0 20 59 48 86 41 19 -5 24 -2 24 12 0 24 29 54
52 54 11 0 28 10 39 23 15 18 20 19 28 8 7 -11 10 -9 13 10 2 20 12 26 62 38
54 13 60 13 72 -3 17 -24 34 -12 34 23 0 25 6 31 52 47 49 18 60 28 72 68 6
16 13 18 62 13 47 -5 54 -4 43 9 -15 18 0 37 41 54 23 10 33 10 44 1 11 -10
23 -8 53 8 21 10 46 29 55 40 22 26 38 27 45 1 8 -29 31 -24 51 10 15 26 23
30 62 31 37 1 41 2 20 9 -14 4 -20 8 -13 9 7 1 10 8 7 16 -7 17 -3 18 20 9z
m-1425 -803 c15 -10 12 -12 -49 -43 -41 -22 -60 -23 -60 -4 0 15 21 26 50 26
10 0 20 7 24 15 6 17 15 19 35 6z m61 -40 c-11 -21 -28 -34 -47 -37 -19 -3
-16 7 9 33 27 29 53 32 38 4z m-176 -45 c-3 -8 -14 -16 -25 -19 -11 -3 -19
-14 -19 -25 0 -12 -9 -23 -19 -27 -11 -3 -23 -14 -26 -25 -3 -10 -20 -22 -41
-27 -40 -9 -46 -25 -13 -33 29 -7 34 -23 14 -44 -25 -25 -43 -19 -61 19 -15
33 -15 37 0 54 9 10 13 20 10 24 -3 3 7 13 23 23 15 10 43 31 61 46 18 16 37
26 42 23 4 -3 10 2 14 10 3 8 14 15 25 15 13 0 19 -5 15 -14z m66 -23 c-1 -22
-95 -101 -107 -90 -5 5 20 49 45 80 15 17 62 24 62 10z m16048 -106 c2 -12 -1
-15 -12 -11 -19 7 -22 38 -3 32 6 -3 13 -12 15 -21z m-16168 -7 c0 -5 -9 -10
-20 -10 -11 0 -20 5 -20 10 0 6 9 10 20 10 11 0 20 -4 20 -10z m-179 -92 c4
-39 0 -41 -38 -31 -28 7 -28 9 -1 49 26 38 35 34 39 -18z m-41 -74 c0 -22 -74
-84 -92 -78 -10 3 -28 -2 -40 -10 -12 -9 -19 -16 -15 -16 5 0 5 -5 2 -10 -5
-8 -11 -8 -20 0 -8 7 -28 8 -51 4 -26 -5 -35 -4 -30 5 4 6 14 11 21 11 8 0 25
14 37 31 13 17 33 35 45 40 26 10 63 65 63 94 0 16 7 12 40 -20 22 -21 40 -45
40 -51z m90 66 c0 -5 -4 -10 -10 -10 -5 0 -10 5 -10 10 0 6 5 10 10 10 6 0 10
-4 10 -10z m16726 -105 c8 -19 20 -35 27 -35 24 0 68 -56 69 -87 1 -25 7 -32
35 -42 19 -7 40 -25 49 -42 10 -21 20 -29 31 -25 20 8 43 -11 43 -36 0 -11 9
-22 20 -25 11 -3 20 -9 20 -13 0 -4 8 -10 18 -13 11 -2 22 -17 25 -36 4 -20
15 -34 30 -40 18 -7 26 -22 36 -65 7 -31 17 -56 22 -56 5 0 9 -8 9 -17 0 -15
2 -16 10 -3 7 10 10 11 10 2 0 -7 8 -16 18 -19 27 -10 62 -46 62 -65 0 -10 5
-18 10 -18 6 0 10 -10 10 -22 0 -13 7 -36 15 -52 8 -15 15 -39 15 -52 0 -28
19 -49 81 -88 40 -25 48 -36 52 -69 3 -21 12 -46 20 -55 8 -9 17 -44 20 -77
10 -116 27 -181 69 -264 23 -45 28 -68 28 -127 0 -40 4 -74 9 -76 5 -1 11 -73
14 -158 2 -85 1 -121 -2 -80 -6 72 -7 70 -11 -55 -5 -140 -3 -178 11 -169 5 3
9 0 9 -5 0 -6 -5 -11 -12 -11 -6 0 -9 -3 -5 -6 3 -3 -1 -27 -9 -52 -7 -26 -14
-59 -14 -73 0 -18 -6 -28 -20 -32 -18 -5 -20 -14 -20 -80 0 -57 -4 -76 -15
-81 -8 -3 -15 -12 -15 -21 0 -8 -4 -15 -10 -15 -5 0 -12 -17 -15 -37 -11 -67
-28 -127 -47 -163 -10 -19 -18 -45 -18 -57 0 -13 -6 -23 -13 -23 -6 0 -23 -21
-37 -47 -14 -26 -42 -65 -64 -85 -24 -24 -36 -43 -32 -53 5 -15 -25 -55 -42
-55 -5 0 -13 -17 -18 -37 -5 -23 -16 -39 -26 -41 -36 -7 -89 -76 -112 -144 -3
-10 -14 -18 -24 -18 -20 0 -90 -97 -96 -133 -1 -12 -11 -24 -22 -25 -10 -2
-30 -14 -44 -27 -30 -27 -88 -61 -93 -54 -2 2 -7 23 -10 46 -4 35 -1 47 19 68
13 14 24 32 24 40 0 8 9 19 20 25 15 8 21 6 30 -9 5 -11 10 -27 10 -36 0 -30
25 -9 28 24 2 22 -2 37 -14 45 -13 10 -14 16 -5 34 15 27 31 28 31 2 0 -11 5
-20 10 -20 6 0 9 20 9 43 -2 51 5 67 30 67 19 0 31 26 31 68 0 15 6 22 20 22
11 0 21 -4 21 -10 1 -5 2 -14 3 -20 3 -22 23 -31 35 -16 10 12 9 21 -5 46 -15
24 -16 34 -7 48 6 9 16 16 22 15 6 -2 14 15 17 37 6 36 8 39 34 34 34 -7 48
11 26 35 -20 22 -20 45 -1 61 18 15 35 5 35 -21 0 -31 24 -17 28 16 2 18 -2
31 -12 37 -20 11 -20 32 -1 66 33 61 64 141 76 194 7 34 16 55 22 51 6 -4 8 0
4 9 -7 20 13 101 37 146 10 19 15 41 12 49 -4 9 -2 41 3 72 5 31 12 86 16 124
4 37 10 65 15 62 22 -14 26 85 6 164 -20 75 -47 320 -40 349 4 14 1 27 -8 35
-18 14 -52 155 -53 216 0 34 3 45 17 49 26 6 24 52 -2 52 -13 0 -20 -7 -20
-20 0 -11 -7 -20 -15 -20 -8 0 -15 5 -15 12 0 6 -7 19 -16 29 -12 14 -13 22
-4 39 6 11 10 35 8 53 l-4 32 -13 -30 c-12 -29 -13 -29 -27 -11 -18 25 -18 36
2 64 16 24 16 63 -1 69 -6 2 -17 -8 -26 -23 l-15 -25 -14 57 c-11 44 -11 59
-2 62 15 5 16 32 1 32 -6 0 -18 -9 -28 -21 -17 -21 -17 -21 -36 16 -15 28 -17
39 -7 42 6 3 12 19 12 36 0 33 -15 27 -22 -8 -3 -19 -4 -19 -26 3 -27 27 -28
48 -2 55 29 8 26 37 -5 37 -16 0 -25 -6 -25 -15 0 -8 -4 -15 -9 -15 -17 0 -23
20 -11 35 15 18 -12 61 -45 69 -14 4 -30 16 -36 28 -7 13 -19 29 -26 37 -11
11 -12 16 -2 22 15 9 21 57 8 65 -6 3 -16 -2 -23 -12 -13 -16 -18 -14 -66 36
-40 41 -48 55 -38 62 10 8 9 9 -3 5 -9 -3 -22 4 -30 16 -8 12 -42 50 -77 84
-57 57 -62 65 -51 85 7 13 18 27 25 31 8 4 14 19 14 32 0 21 5 25 31 25 25 0
32 -6 45 -35z m-16976 -120 c0 -24 -33 -35 -71 -25 -43 13 -42 13 -35 -5 3 -9
-1 -18 -10 -22 -11 -4 -14 -14 -10 -34 3 -16 1 -29 -4 -29 -6 0 -10 -6 -10
-13 0 -7 -16 -31 -36 -52 -33 -36 -37 -38 -49 -22 -16 22 -34 22 -30 0 13 -67
14 -83 2 -80 -6 1 -11 -4 -9 -11 1 -7 -5 -15 -13 -18 -8 -4 -15 -14 -15 -23 0
-13 -2 -13 -9 -2 -7 10 -10 10 -16 1 -4 -7 -2 -16 4 -20 9 -5 8 -10 -3 -19
-12 -10 -17 -9 -25 8 -6 11 -11 29 -11 40 0 14 -5 19 -15 15 -21 -9 -20 -70 2
-83 14 -8 15 -13 5 -33 -33 -63 -61 -103 -76 -106 -10 -2 -16 -14 -16 -29 0
-16 -7 -27 -20 -30 -11 -3 -20 -12 -20 -20 0 -8 5 -11 11 -7 7 4 4 -7 -7 -25
-10 -17 -22 -31 -25 -31 -4 0 -22 -38 -39 -84 -22 -58 -38 -86 -51 -89 -10 -3
-17 -1 -13 4 3 5 0 9 -6 9 -6 0 -1 17 12 41 l22 40 -23 44 c-18 35 -21 47 -12
64 13 23 22 26 36 13 6 -5 17 -1 28 10 11 12 13 18 5 18 -7 0 -19 4 -26 8 -19
13 13 85 36 80 18 -4 18 -7 8 -50 -5 -21 -3 -28 9 -28 8 0 15 9 15 19 0 11 12
29 26 40 l25 20 -30 16 c-22 11 -31 23 -31 40 0 16 6 25 15 25 8 0 15 4 15 9
0 5 11 22 24 38 13 16 26 40 28 53 1 13 14 30 26 36 15 7 19 13 11 16 -20 7
-2 38 21 38 14 0 24 9 31 28 5 15 23 36 39 46 17 9 35 26 40 37 13 22 50 26
50 4 0 -8 9 -15 19 -15 25 0 36 29 13 36 -79 25 -81 48 -4 52 42 3 52 7 58 25
12 39 25 47 80 47 41 0 54 -4 54 -15z m-66 -47 c-3 -4 -9 -8 -15 -8 -5 0 -9 4
-9 8 0 5 7 9 15 9 8 0 12 -4 9 -9z m11810 -617 c4 -5 24 -12 46 -16 22 -4 40
-11 40 -15 0 -5 21 -12 48 -15 26 -4 70 -18 99 -31 28 -13 61 -24 72 -24 14 0
21 -6 21 -20 0 -11 6 -20 13 -20 7 0 30 -9 52 -20 22 -11 47 -20 57 -20 10 0
23 -9 30 -20 7 -11 18 -20 24 -20 6 0 17 -6 23 -14 6 -7 27 -16 46 -19 21 -3
48 -19 66 -37 17 -17 45 -37 63 -44 17 -8 40 -22 51 -32 23 -22 60 -40 96 -48
14 -3 31 -16 37 -30 6 -13 24 -30 41 -37 17 -8 34 -21 36 -29 3 -8 24 -26 46
-40 23 -14 50 -37 61 -52 11 -16 26 -28 34 -28 8 0 17 -8 21 -17 8 -22 32 -47
55 -55 9 -4 25 -20 35 -35 10 -15 51 -61 91 -101 52 -52 72 -79 72 -98 0 -27
13 -44 48 -63 14 -7 22 -21 22 -38 0 -16 15 -42 40 -69 24 -26 40 -53 40 -68
0 -14 4 -27 9 -30 8 -5 26 -73 23 -88 -1 -4 7 -9 17 -13 21 -6 31 -33 31 -88
0 -21 5 -48 12 -60 8 -15 11 -68 10 -159 -2 -158 -21 -251 -58 -286 -18 -17
-24 -34 -24 -63 0 -32 -4 -42 -20 -46 -16 -4 -20 -14 -20 -44 0 -22 -4 -39 -9
-39 -5 0 -14 -14 -22 -31 -7 -18 -32 -50 -56 -72 -24 -22 -57 -66 -75 -98 -17
-33 -35 -59 -40 -59 -6 0 -40 -28 -76 -63 -61 -57 -94 -83 -141 -112 -9 -5
-43 -36 -76 -67 -32 -32 -64 -58 -70 -58 -6 0 -27 -16 -46 -36 -35 -37 -72
-57 -128 -69 -18 -4 -48 -22 -66 -40 -19 -18 -50 -36 -69 -39 -19 -4 -43 -17
-53 -29 -26 -32 -84 -59 -100 -45 -10 8 -16 3 -24 -20 -24 -71 -68 -29 -46 45
9 31 12 34 15 16 6 -40 27 -26 27 18 0 27 6 45 18 54 9 7 17 16 17 20 0 4 -6
2 -14 -4 -17 -14 -29 8 -15 30 5 8 9 24 9 37 0 12 5 22 10 22 6 0 10 27 10 60
0 33 4 60 10 60 6 0 10 18 10 40 0 27 4 40 14 40 16 0 28 60 14 77 -12 14 0
65 19 80 17 13 19 73 15 408 -3 205 -1 230 13 227 25 -5 28 25 6 63 -22 38
-29 111 -10 117 12 4 -10 52 -26 57 -15 3 -26 39 -15 46 6 4 15 3 20 0 6 -3
10 3 10 14 0 14 -9 23 -25 27 -35 9 -56 59 -59 141 -3 71 -12 103 -27 103 -5
0 -9 14 -9 31 0 27 -11 72 -40 161 -4 16 -5 30 0 33 4 3 11 -10 14 -29 4 -19
13 -39 21 -46 13 -11 15 -6 15 33 0 25 -4 48 -9 51 -12 8 -41 99 -41 131 0 16
-7 28 -17 31 -10 3 -26 10 -35 15 -13 6 -18 5 -18 -3 0 -7 -8 2 -17 21 -13 26
-14 36 -5 39 14 4 16 42 2 42 -5 0 -10 -7 -10 -15 0 -30 -19 -14 -31 25 -7 22
-16 40 -21 40 -4 0 -8 7 -8 15 0 8 -4 23 -9 33 -42 85 -57 112 -63 112 -5 0
-8 7 -8 15 0 8 -6 24 -12 35 -10 16 -10 24 0 41 10 15 11 24 3 32 -8 8 -11 6
-11 -6 0 -9 -4 -17 -9 -17 -16 0 -24 21 -12 33 17 17 13 27 -10 24 -17 -1 -25
7 -35 37 -14 40 -10 62 6 36 9 -13 10 -13 10 0 0 36 -22 90 -37 90 -11 0 -14
-8 -11 -35 2 -19 3 -33 2 -32 -2 1 -14 19 -28 40 -20 28 -24 44 -19 69 4 22 3
29 -5 24 -7 -4 -12 -15 -12 -24 0 -14 -2 -14 -9 -3 -5 8 -8 19 -7 25 2 6 1 8
-1 4 -8 -13 -23 -9 -23 6 0 22 43 35 54 17z m-12384 -89 c0 -50 -13 -74 -36
-65 -9 3 -14 21 -14 52 0 52 4 61 32 61 15 0 18 -8 18 -48z m-55 -125 c0 -25
3 -48 7 -52 4 -4 4 2 1 13 -3 14 4 30 23 49 l27 27 10 -22 c18 -41 -49 -212
-84 -212 -22 0 -26 -25 -4 -33 12 -5 12 -13 -1 -59 -9 -29 -25 -72 -36 -96
-14 -30 -21 -69 -23 -132 -4 -96 -13 -128 -26 -94 -4 10 -8 33 -8 51 -1 17 -5
35 -11 38 -6 4 -10 -23 -10 -74 0 -65 3 -81 15 -81 22 0 30 -47 18 -104 -6
-28 -9 -91 -6 -139 4 -70 2 -87 -9 -85 -10 2 -14 -15 -16 -67 -2 -49 -7 -74
-18 -82 -17 -13 -15 -54 3 -60 14 -5 33 57 33 109 0 20 4 39 10 43 13 8 32
-69 25 -98 -7 -27 11 -107 24 -107 15 0 31 -60 31 -112 0 -36 7 -59 25 -86 14
-20 25 -44 25 -54 0 -9 9 -32 20 -50 11 -19 22 -51 24 -72 3 -21 11 -45 18
-53 7 -8 13 -21 14 -29 1 -8 13 -23 26 -34 12 -11 17 -19 11 -20 -19 0 -16
-20 2 -20 9 0 21 -12 28 -27 6 -16 24 -46 39 -67 22 -30 25 -42 17 -52 -9 -11
-8 -14 5 -14 9 0 16 -5 16 -11 0 -5 -4 -8 -9 -5 -8 6 -21 -15 -21 -35 0 -15
28 -10 38 7 12 21 32 10 32 -17 0 -11 4 -17 10 -14 5 3 12 -5 15 -18 4 -14 18
-30 31 -36 14 -6 22 -16 19 -21 -9 -14 -45 -12 -45 3 -1 12 -34 57 -43 57 -3
0 -7 -9 -10 -21 -3 -12 -10 -18 -16 -15 -6 4 -8 13 -4 21 3 8 1 15 -5 15 -6 0
-13 -6 -15 -12 -4 -9 -6 -8 -6 3 -1 8 -13 26 -27 38 -20 17 -23 26 -15 34 9 9
14 8 21 -3 5 -8 10 -12 10 -8 0 3 3 14 7 24 4 10 2 15 -4 11 -5 -3 -9 4 -9 16
1 14 -8 26 -21 32 -16 6 -25 22 -31 50 -5 26 -14 41 -25 43 -20 4 -24 -33 -4
-41 9 -4 8 -8 -3 -16 -8 -6 -12 -11 -7 -11 4 0 9 1 10 3 11 7 37 -29 37 -52 0
-20 -2 -23 -10 -11 -9 13 -10 13 -10 0 0 -8 -8 1 -17 20 -9 19 -22 48 -29 64
-18 37 -17 46 0 46 8 0 17 8 21 17 4 13 -4 26 -29 46 -20 16 -36 37 -36 47 0
11 -5 22 -11 26 -6 4 -9 19 -5 35 4 22 0 35 -17 52 -12 12 -22 27 -23 32 -1
35 -16 85 -25 85 -5 0 -9 15 -8 33 5 73 -1 117 -16 117 -17 0 -20 -16 -5 -25
13 -8 13 -112 0 -120 -5 -3 -10 -17 -10 -31 0 -25 -23 -33 -36 -12 -4 6 -3 8
3 5 6 -4 13 2 16 13 6 22 -18 29 -25 8 -3 -7 -5 13 -5 45 0 43 -6 66 -21 87
-12 16 -19 36 -16 44 3 9 -3 27 -14 41 -29 36 -39 105 -18 117 18 10 22 63 6
73 -6 3 -10 -2 -10 -12 0 -15 -2 -16 -10 -3 -5 8 -10 34 -10 57 0 23 -4 45
-10 48 -13 8 -13 75 0 75 6 0 10 -16 10 -35 0 -19 5 -35 10 -35 13 0 13 110 0
130 -7 12 -10 8 -10 -15 -1 -27 -2 -28 -12 -11 -15 26 -15 193 0 208 9 9 12 9
12 -2 0 -11 3 -11 16 2 9 9 13 21 9 28 -5 8 -10 9 -18 1 -22 -22 -30 -10 -24
36 3 27 1 56 -4 65 -6 10 -5 19 1 23 5 3 10 1 10 -5 0 -6 5 -8 10 -5 6 4 8 10
5 15 -3 4 2 27 10 50 8 23 16 57 16 74 l2 31 6 -35 c8 -46 36 -52 45 -9 7 35
1 49 -20 49 -17 0 -17 5 -3 89 7 42 21 79 37 100 16 22 27 52 30 82 3 33 9 49
19 49 16 0 19 -9 28 -73 3 -26 10 -45 16 -42 12 8 12 72 -1 80 -11 7 -14 108
-3 119 16 16 28 -4 28 -47z m12805 -573 c0 -8 -4 -12 -10 -9 -5 3 -10 13 -10
21 0 8 5 12 10 9 6 -3 10 -13 10 -21z m26 -50 c3 -21 8 -42 11 -46 2 -5 0 -8
-5 -8 -12 0 -22 34 -22 74 0 39 8 29 16 -20z m74 -344 c0 -5 -2 -10 -4 -10 -3
0 -8 5 -11 10 -3 6 -1 10 4 10 6 0 11 -4 11 -10z m100 -319 c0 -6 -4 -13 -10
-16 -5 -3 -10 1 -10 9 0 9 5 16 10 16 6 0 10 -4 10 -9z m-13029 -301 c5 0 9
-14 9 -31 0 -17 -4 -28 -10 -24 -5 3 -10 17 -10 31 0 13 -4 24 -10 24 -5 0
-10 -6 -10 -12 0 -20 -20 14 -20 34 0 9 8 24 18 34 16 17 17 16 20 -19 2 -20
7 -37 13 -37z m69 -190 c0 -5 -5 -10 -11 -10 -5 0 -7 5 -4 10 3 6 8 10 11 10
2 0 4 -4 4 -10z m344 -377 c5 -18 2 -31 -10 -42 -9 -9 -14 -10 -10 -3 4 6 2
12 -3 12 -6 0 -11 -6 -11 -12 0 -8 -7 -5 -15 6 -13 17 -12 22 8 42 29 29 34
29 41 -3z m54 -61 c2 -12 -1 -22 -7 -22 -6 0 -11 -9 -11 -20 0 -13 -7 -20 -19
-20 -27 0 -36 18 -18 38 7 9 17 25 20 35 9 24 31 17 35 -11z m56 -59 c8 -16
30 -44 50 -62 20 -19 36 -41 36 -49 0 -7 4 -10 10 -7 10 6 70 -33 70 -47 0
-14 -29 -9 -38 7 -4 9 -19 17 -32 18 -12 1 -34 16 -49 34 -14 18 -31 33 -37
33 -6 0 -25 13 -43 29 -25 23 -29 30 -16 34 8 4 15 13 15 22 0 24 18 17 34
-12z m17206 -67 c0 -14 4 -27 9 -30 5 -3 11 -17 14 -32 5 -30 -20 -46 -35 -21
-10 18 -48 24 -48 7 0 -5 -14 -17 -31 -25 -24 -13 -30 -22 -27 -43 3 -27 2
-28 -44 -31 -11 -1 -18 -9 -18 -20 0 -29 -25 -45 -50 -31 -12 6 -20 14 -18 16
26 35 226 233 236 233 6 1 12 -10 12 -23z m-16996 -143 c11 -14 13 -23 6 -18
-9 5 -11 4 -6 -3 4 -7 16 -12 27 -12 11 0 19 -7 19 -16 0 -11 -6 -14 -22 -9
-24 8 -88 63 -88 77 0 19 47 5 64 -19z m82 -100 c-10 -10 -19 5 -10 18 6 11 8
11 12 0 2 -7 1 -15 -2 -18z m16679 -15 c38 -4 35 -21 -6 -31 -24 -6 -35 -17
-47 -48 -10 -27 -21 -39 -31 -37 -20 5 -15 38 8 58 10 8 21 23 24 33 5 14 2
16 -21 12 -25 -5 -25 -5 -4 4 12 6 22 16 22 22 0 8 4 8 13 1 6 -6 26 -12 42
-14z m90 12 c-3 -5 -12 -7 -20 -3 -21 7 -19 13 6 13 11 0 18 -4 14 -10z
m-16711 -16 c9 -3 16 -10 16 -16 0 -14 -43 -5 -48 10 -4 13 7 15 32 6z m98
-69 c19 -23 4 -55 -16 -35 -8 8 -7 14 4 21 13 9 13 10 0 6 -18 -5 -50 10 -50
24 0 17 44 6 62 -16z m16406 13 c-3 -7 -14 -14 -26 -16 -12 -2 -22 -9 -22 -17
0 -22 -59 -78 -75 -71 -24 9 -18 23 19 45 19 12 41 33 50 46 17 25 61 36 54
13z m-16333 -78 c0 -7 -10 -15 -22 -16 -25 -4 -29 6 -11 24 15 15 33 10 33 -8z
m16333 -2 c-6 -18 -28 -21 -28 -4 0 9 7 16 16 16 9 0 14 -5 12 -12z m-16268
-36 c0 -4 18 -19 39 -32 21 -14 34 -28 29 -31 -14 -9 -1 -29 19 -29 10 0 13 6
9 17 -6 15 -5 15 11 1 10 -8 26 -18 36 -21 14 -5 26 -37 13 -37 -24 0 -99 46
-129 79 -20 22 -41 41 -46 41 -6 0 -13 5 -16 10 -3 6 3 10 14 10 12 0 21 -4
21 -8z m16148 -14 c9 -9 7 -17 -10 -35 -12 -13 -27 -23 -34 -23 -17 0 -85 -31
-106 -48 -9 -8 -14 -20 -12 -27 5 -13 -24 -25 -63 -25 -17 0 -23 -6 -23 -22 0
-25 -27 -58 -48 -58 -9 0 -13 7 -9 20 9 36 -21 22 -45 -20 -15 -26 -38 -48
-66 -61 -41 -20 -74 -19 -42 1 8 6 11 10 7 10 -17 0 129 110 154 115 15 4 35
15 45 26 9 10 21 19 25 19 4 0 27 20 51 45 24 24 48 45 53 45 6 0 24 11 40 25
33 27 64 32 83 13z m-15908 -149 c0 -6 -7 -8 -16 -5 -9 3 -18 6 -20 6 -2 0 -4
7 -4 15 0 13 4 14 20 5 11 -6 20 -16 20 -21z m108 -46 c15 -10 30 -21 33 -26
3 -5 10 -8 15 -7 5 1 10 -3 12 -9 6 -19 -27 -12 -49 10 -12 12 -32 22 -46 24
-13 1 -29 7 -36 14 -18 18 40 13 71 -6z m116 -78 c-4 -8 -2 -15 4 -15 6 0 12
5 14 12 3 7 10 8 17 4 9 -6 7 -12 -11 -21 -15 -7 -27 -8 -35 -2 -18 13 -16 37
2 37 9 0 12 -6 9 -15z m15212 -46 c10 -16 -16 -37 -97 -79 -41 -21 -73 -43
-71 -49 2 -13 -64 -15 -72 -3 -8 13 102 82 131 82 14 0 23 3 20 7 -8 7 51 53
69 53 7 0 16 -5 20 -11z m-15018 -46 c2 -8 -5 -13 -16 -13 -28 0 -52 10 -52
22 0 14 63 5 68 -9z m62 -35 c0 -10 3 -9 9 1 7 11 11 9 20 -8 7 -11 21 -21 31
-21 11 0 20 -4 20 -10 0 -15 -10 -13 -62 12 -48 23 -61 38 -33 38 8 0 15 -6
15 -12z m165 -67 c3 -5 1 -12 -4 -15 -12 -8 -41 3 -41 15 0 12 37 12 45 0z
m14510 -31 c-3 -5 -10 -10 -16 -10 -5 0 -9 5 -9 10 0 6 7 10 16 10 8 0 12 -4
9 -10z m-14385 -29 c3 -4 26 -14 53 -22 50 -14 62 -29 24 -29 -21 0 -97 35
-107 50 -3 4 -12 10 -20 14 -8 3 -2 3 15 0 16 -3 32 -9 35 -13z m14339 10 c8
-5 11 -16 7 -26 -5 -13 -13 -15 -34 -10 -33 8 -46 20 -38 34 9 13 46 14 65 2z
m-91 -53 c3 -14 -3 -18 -26 -18 -27 0 -73 -31 -83 -56 -3 -9 -99 -54 -113 -54
-3 0 -3 7 0 15 4 8 1 15 -5 15 -6 0 -11 -7 -11 -15 0 -8 -7 -15 -15 -15 -8 0
-15 4 -15 9 0 15 27 32 62 37 19 4 49 19 68 35 18 16 43 29 55 29 15 0 25 8
28 21 7 26 50 23 55 -3z m-14063 -27 c3 -5 1 -12 -4 -15 -13 -8 -42 4 -35 15
7 12 31 12 39 0z m13775 -124 c0 -20 -22 -37 -47 -37 -27 0 -31 24 -5 39 24
15 52 13 52 -2z m-211 -113 c-10 -12 -14 -12 -20 -2 -4 7 -3 16 4 20 18 11 29
-2 16 -18z m-69 -13 c0 -16 -31 -41 -50 -41 -10 0 -22 -4 -25 -10 -9 -14 -48
-13 -43 2 2 6 22 17 43 25 22 7 44 18 49 23 13 13 26 13 26 1z m-144 -76 c-19
-19 -67 -38 -75 -29 -3 4 -1 9 5 11 6 2 20 10 30 18 10 8 27 15 37 15 16 0 17
-2 3 -15z m-106 -65 c0 -14 -29 -32 -40 -25 -6 4 -29 -3 -51 -14 -22 -12 -51
-21 -64 -21 -13 0 -44 -11 -67 -24 -24 -13 -65 -26 -93 -29 -42 -5 -45 -5 -18
4 18 5 35 14 38 19 3 6 13 10 21 10 14 0 58 18 159 65 48 22 115 31 115 15z
m-370 -138 c0 -5 -6 -9 -12 -10 -7 0 -24 -4 -38 -8 -17 -5 -22 -3 -15 4 9 9
30 17 58 21 4 0 7 -3 7 -7z m-96 -32 c-10 -4 -23 -5 -28 -2 -5 3 -1 9 10 12
10 4 23 5 28 2 5 -3 1 -9 -10 -12z m-89 -40 c0 -8 -11 -17 -24 -18 -27 -4 -49
12 -32 22 6 4 11 2 11 -4 0 -6 5 -8 10 -5 6 4 7 11 4 17 -4 6 1 8 12 6 11 -2
19 -10 19 -18z m-135 -49 c0 -5 -9 -13 -20 -16 -12 -4 -30 -16 -41 -28 -11
-12 -34 -23 -52 -24 -18 -1 -49 -5 -69 -9 -27 -4 -38 -3 -38 6 0 9 10 11 30 7
29 -6 42 6 18 16 -7 3 4 6 24 6 20 1 40 6 44 12 15 25 104 50 104 30z m-276
-90 c7 -11 -39 -31 -74 -31 -16 0 -31 -4 -34 -8 -2 -4 -23 -9 -46 -10 -27 -2
-39 1 -35 8 3 5 24 10 45 10 21 0 45 6 52 13 24 25 81 36 92 18z m-324 -91 c0
-5 -4 -10 -10 -10 -5 0 -10 5 -10 10 0 6 5 10 10 10 6 0 10 -4 10 -10z m-37
-27 c-7 -2 -19 -2 -25 0 -7 3 -2 5 12 5 14 0 19 -2 13 -5z m-63 -13 c-20 -13
-53 -13 -45 0 3 6 18 10 33 10 21 0 24 -2 12 -10z m-165 -49 c-3 -5 -31 -12
-63 -16 -31 -3 -65 -10 -74 -15 -10 -6 -28 -10 -40 -9 -52 1 89 42 165 48 10
0 16 -3 12 -8z m-575 -136 c-8 -9 -28 -15 -54 -14 l-41 1 40 13 c57 19 71 19
55 0z m-320 -65 c0 -5 -10 -10 -22 -10 -19 0 -20 2 -8 10 19 13 30 13 30 0z
m-137 -34 c3 -8 3 -17 0 -20 -8 -7 -43 12 -43 24 0 15 37 12 43 -4z m-333 -61
c0 -16 -9 -19 -34 -9 -20 8 -11 24 15 24 10 0 19 -7 19 -15z m-262 -42 c-10
-2 -28 -2 -40 0 -13 2 -5 4 17 4 22 1 32 -1 23 -4z m-218 -33 c0 -12 -17 -12
-45 0 -17 7 -15 9 13 9 17 1 32 -3 32 -9z m-400 -49 c0 -16 -39 -23 -83 -15
-38 7 -40 8 -17 15 37 10 100 10 100 0z m-410 -41 c0 -5 -17 -10 -37 -9 -31 0
-34 2 -18 9 28 12 55 12 55 0z"/>
<path d="M9285 13860 c-3 -5 0 -13 8 -16 23 -9 142 0 142 11 0 14 -142 19
-150 5z"/>
<path d="M9882 13846 c-26 -14 -19 -26 15 -26 13 0 23 6 23 14 0 22 -13 26
-38 12z"/>
<path d="M9602 13844 c-6 -3 -10 -10 -6 -15 7 -12 84 -12 84 1 0 6 -6 10 -12
10 -7 0 -22 2 -33 5 -11 2 -26 2 -33 -1z"/>
<path d="M8848 13833 c28 -2 76 -2 105 0 28 2 5 3 -53 3 -58 0 -81 -1 -52 -3z"/>
<path d="M10695 13820 c-3 -5 -1 -10 4 -10 6 0 11 5 11 10 0 6 -2 10 -4 10 -3
0 -8 -4 -11 -10z"/>
<path d="M11447 13788 c-7 -4 4 -8 26 -8 20 0 37 4 37 10 0 11 -45 10 -63 -2z"/>
<path d="M12486 13641 c-9 -15 3 -19 82 -26 63 -7 72 -6 72 9 0 13 -11 16 -59
16 -33 0 -66 3 -74 6 -8 3 -18 1 -21 -5z"/>
<path d="M13133 13513 c9 -2 23 -2 30 0 6 3 -1 5 -18 5 -16 0 -22 -2 -12 -5z"/>
<path d="M13280 13510 c0 -5 12 -10 28 -10 15 0 41 -4 57 -8 17 -5 41 -5 55
-1 19 5 15 7 -22 8 -27 1 -48 6 -48 11 0 6 -16 10 -35 10 -19 0 -35 -4 -35
-10z"/>
<path d="M13547 13473 c-12 -12 -7 -21 15 -26 27 -7 39 -1 31 18 -5 15 -34 20
-46 8z"/>
<path d="M13635 13430 c-29 -7 -29 -8 10 -9 22 0 54 -5 70 -9 37 -11 56 -5 48
14 -6 15 -74 18 -128 4z"/>
<path d="M14037 13353 c-4 -3 -7 -12 -7 -20 0 -9 18 -13 65 -13 58 0 65 2 65
20 0 18 -7 20 -58 20 -32 0 -62 -3 -65 -7z"/>
<path d="M14200 13310 l-25 -7 28 -8 c30 -8 47 0 31 14 -5 4 -20 5 -34 1z"/>
<path d="M14250 13273 c0 -16 143 -44 152 -30 14 22 8 27 -26 27 -18 0 -54 3
-80 6 -28 4 -46 3 -46 -3z"/>
<path d="M14558 13196 c-4 -19 -1 -23 11 -19 29 11 32 15 20 29 -17 20 -26 17
-31 -10z"/>
<path d="M14670 13170 c0 -5 11 -10 25 -10 14 0 25 5 25 10 0 6 -11 10 -25 10
-14 0 -25 -4 -25 -10z"/>
<path d="M15048 13038 c-8 -4 4 -8 30 -8 23 0 42 2 42 4 0 8 -60 12 -72 4z"/>
<path d="M15150 13010 c20 -13 50 -13 50 0 0 6 -15 10 -32 10 -25 0 -29 -3
-18 -10z"/>
<path d="M15490 12920 c-13 -9 -13 -11 0 -20 18 -11 39 5 24 20 -6 6 -15 6
-24 0z"/>
<path d="M16132 12661 c-10 -6 -10 -10 2 -20 10 -9 16 -9 21 -1 10 16 -7 31
-23 21z"/>
<path d="M16680 12370 c0 -5 9 -10 20 -10 11 0 20 5 20 10 0 6 -9 10 -20 10
-11 0 -20 -4 -20 -10z"/>
<path d="M16756 12341 c-8 -13 21 -34 39 -27 20 7 8 36 -15 36 -11 0 -21 -4
-24 -9z"/>
<path d="M16927 12243 c-3 -5 0 -19 7 -32 11 -19 14 -21 19 -7 4 9 14 16 23
16 8 0 14 6 12 13 -5 14 -54 22 -61 10z"/>
<path d="M17070 12168 c27 -22 50 -23 50 -3 0 16 -1 17 -44 19 l-28 2 22 -18z"/>
<path d="M17166 12051 c-3 -5 1 -11 9 -15 18 -6 45 2 45 15 0 12 -47 12 -54 0z"/>
<path d="M17260 11999 c0 -11 5 -17 10 -14 6 3 10 13 10 21 0 8 -4 14 -10 14
-5 0 -10 -9 -10 -21z"/>
<path d="M17414 11878 c3 -13 6 -26 6 -30 0 -5 5 -8 10 -8 6 0 10 14 10 30 0
21 -5 30 -16 30 -12 0 -15 -6 -10 -22z"/>
<path d="M17535 11851 c-6 -11 32 -41 52 -41 7 0 13 11 13 25 0 21 -5 25 -29
25 -17 0 -32 -4 -36 -9z"/>
<path d="M17695 11711 c-10 -17 15 -53 33 -49 9 2 17 9 17 17 0 19 -41 45 -50
32z"/>
<path d="M3360 12840 c0 -5 -13 -10 -29 -10 -37 0 -48 -15 -22 -29 30 -17 44
-13 69 20 23 29 23 29 3 29 -12 0 -21 -4 -21 -10z"/>
<path d="M2693 12563 c-20 -8 -15 -23 7 -23 11 0 20 7 20 15 0 15 -6 17 -27 8z"/>
<path d="M2290 12336 c0 -11 10 -16 31 -16 38 0 35 24 -4 28 -19 2 -27 -1 -27
-12z"/>
<path d="M1345 11750 c-3 -5 -1 -10 4 -10 6 0 11 5 11 10 0 6 -2 10 -4 10 -3
0 -8 -4 -11 -10z"/>
<path d="M1120 11520 c0 -21 4 -28 14 -24 30 12 30 54 0 54 -9 0 -14 -11 -14
-30z"/>
<path d="M17978 11444 c-14 -14 5 -42 28 -40 34 2 35 46 1 46 -13 0 -26 -3
-29 -6z"/>
<path d="M18115 11240 c14 -15 22 -17 37 -9 26 14 13 29 -24 29 -30 0 -31 -1
-13 -20z"/>
<path d="M18224 11089 c-3 -6 -1 -16 5 -22 8 -8 11 -8 11 1 0 6 10 11 23 10
42 -2 54 3 32 12 -29 12 -63 12 -71 -1z"/>
<path d="M18656 10348 c-4 -22 -2 -37 9 -47 21 -22 34 0 26 42 -9 42 -27 45
-35 5z"/>
<path d="M18707 10063 c-9 -15 -5 -233 4 -233 5 0 9 53 9 120 0 112 -2 131
-13 113z"/>
<path d="M18711 9434 c0 -11 3 -14 6 -6 3 7 2 16 -1 19 -3 4 -6 -2 -5 -13z"/>
<path d="M18700 9375 c0 -19 5 -35 10 -35 6 0 10 16 10 35 0 19 -4 35 -10 35
-5 0 -10 -16 -10 -35z"/>
<path d="M18652 9188 c-6 -13 -13 -43 -16 -68 -2 -25 -7 -57 -11 -72 -6 -24
-4 -28 12 -28 18 0 21 9 26 76 3 42 10 81 16 87 15 15 14 27 -2 27 -8 0 -19
-10 -25 -22z"/>
<path d="M18721 9004 c0 -11 3 -14 6 -6 3 7 2 16 -1 19 -3 4 -6 -2 -5 -13z"/>
<path d="M18540 8855 c0 -18 5 -25 20 -25 11 0 20 6 20 13 0 7 -9 18 -20 25
-18 11 -20 10 -20 -13z"/>
<path d="M18410 8583 c0 -18 5 -33 10 -33 13 0 13 30 0 50 -7 11 -10 7 -10
-17z"/>
<path d="M18286 8425 c-21 -32 -20 -45 4 -45 16 0 20 7 20 35 0 42 -3 43 -24
10z"/>
<path d="M18132 8293 c5 -25 28 -28 28 -4 0 12 -6 21 -16 21 -9 0 -14 -7 -12
-17z"/>
<path d="M18117 8243 c-15 -14 -6 -23 23 -23 20 0 30 5 30 15 0 15 -40 21 -53
8z"/>
<path d="M704 11108 c3 -13 6 -26 6 -30 0 -5 11 -8 25 -8 18 0 25 5 25 20 0
11 6 20 13 21 20 1 -26 18 -52 18 -19 1 -22 -3 -17 -21z"/>
<path d="M642 10935 c0 -16 2 -22 5 -12 2 9 2 23 0 30 -3 6 -5 -1 -5 -18z"/>
<path d="M592 10926 c1 -10 8 -17 13 -17 15 1 12 24 -3 29 -9 3 -13 -2 -10
-12z"/>
<path d="M12940 10600 c0 -11 5 -20 10 -20 6 0 10 9 10 20 0 11 -4 20 -10 20
-5 0 -10 -9 -10 -20z"/>
<path d="M13129 10480 c-11 -7 -10 -10 4 -16 10 -4 23 -2 28 3 14 14 -13 24
-32 13z"/>
<path d="M13000 10289 c0 -10 27 -19 34 -12 11 12 6 19 -14 19 -11 0 -20 -3
-20 -7z"/>
<path d="M13099 10251 c-1 -12 -2 -26 -3 -33 -1 -6 5 -13 12 -15 8 -3 12 6 12
26 0 34 -19 53 -21 22z"/>
<path d="M13735 10150 c3 -5 8 -10 11 -10 2 0 4 5 4 10 0 6 -5 10 -11 10 -5 0
-7 -4 -4 -10z"/>
<path d="M14045 9830 c3 -5 10 -10 16 -10 5 0 9 5 9 10 0 6 -7 10 -16 10 -8 0
-12 -4 -9 -10z"/>
<path d="M14082 9790 c0 -14 2 -19 5 -12 2 6 2 18 0 25 -3 6 -5 1 -5 -13z"/>
<path d="M13256 9682 c-3 -6 -1 -14 5 -17 15 -10 25 3 12 16 -7 7 -13 7 -17 1z"/>
<path d="M13331 9374 c0 -11 3 -14 6 -6 3 7 2 16 -1 19 -3 4 -6 -2 -5 -13z"/>
<path d="M14322 8840 c0 -14 2 -19 5 -12 2 6 2 18 0 25 -3 6 -5 1 -5 -13z"/>
<path d="M14255 8690 c-3 -5 1 -10 10 -10 9 0 13 5 10 10 -3 6 -8 10 -10 10
-2 0 -7 -4 -10 -10z"/>
<path d="M13421 8403 c0 -42 3 -52 9 -38 12 28 12 95 0 95 -6 0 -10 -25 -9
-57z"/>
<path d="M13340 8320 c0 -19 3 -21 12 -12 9 9 9 15 0 24 -9 9 -12 7 -12 -12z"/>
<path d="M385 10630 c-3 -5 -1 -10 4 -10 6 0 11 5 11 10 0 6 -2 10 -4 10 -3 0
-8 -4 -11 -10z"/>
<path d="M262 10170 c0 -14 2 -19 5 -12 2 6 2 18 0 25 -3 6 -5 1 -5 -13z"/>
<path d="M142 9929 c1 -13 8 -23 13 -21 15 3 12 35 -3 40 -9 3 -13 -3 -10 -19z"/>
<path d="M190 9741 c0 -39 5 -73 10 -76 6 -4 10 22 10 69 0 44 -4 76 -10 76
-6 0 -10 -30 -10 -69z"/>
<path d="M140 9740 c0 -11 5 -20 10 -20 6 0 10 9 10 20 0 11 -4 20 -10 20 -5
0 -10 -9 -10 -20z"/>
<path d="M235 9210 c-10 -16 4 -30 30 -30 18 0 22 4 18 20 -6 21 -37 27 -48
10z"/>
<path d="M1040 8010 c0 -5 5 -10 11 -10 5 0 7 5 4 10 -3 6 -8 10 -11 10 -2 0
-4 -4 -4 -10z"/>
<path d="M7680 13970 c0 -5 16 -10 36 -10 21 0 33 4 29 10 -3 6 -19 10 -36 10
-16 0 -29 -4 -29 -10z"/>
<path d="M7955 13970 c-3 -5 -1 -10 4 -10 6 0 11 5 11 10 0 6 -2 10 -4 10 -3
0 -8 -4 -11 -10z"/>
<path d="M160 13928 c0 -16 5 -28 10 -28 13 0 13 20 0 40 -8 12 -10 9 -10 -12z"/>
<path d="M11694 13933 c10 -10 136 -11 136 -1 0 4 -32 8 -72 8 -39 0 -68 -3
-64 -7z"/>
<path d="M6090 13768 c0 -4 14 -8 30 -8 17 0 30 2 30 4 0 2 -13 6 -30 8 -16 3
-30 1 -30 -4z"/>
<path d="M5560 13650 c0 -4 25 -8 55 -9 32 0 55 3 55 10 0 6 -22 9 -55 8 -30
-1 -55 -6 -55 -9z"/>
<path d="M13700 13656 c0 -2 7 -6 15 -10 8 -3 15 -1 15 4 0 6 -7 10 -15 10 -8
0 -15 -2 -15 -4z"/>
<path d="M5440 13610 c0 -17 5 -21 28 -18 16 2 27 9 27 18 0 9 -11 16 -27 18
-23 3 -28 -1 -28 -18z"/>
<path d="M4800 13490 c0 -5 6 -10 14 -10 8 0 18 5 21 10 3 6 -3 10 -14 10 -12
0 -21 -4 -21 -10z"/>
<path d="M153 13380 c0 -25 2 -35 4 -22 2 12 2 32 0 45 -2 12 -4 2 -4 -23z"/>
<path d="M4145 13330 c-4 -6 6 -10 24 -10 16 0 33 5 36 10 4 6 -6 10 -24 10
-16 0 -33 -4 -36 -10z"/>
<path d="M4400 13319 c0 -5 5 -7 10 -4 6 3 10 8 10 11 0 2 -4 4 -10 4 -5 0
-10 -5 -10 -11z"/>
<path d="M3680 13164 c0 -17 22 -14 28 4 2 7 -3 12 -12 12 -9 0 -16 -7 -16
-16z"/>
<path d="M3770 13170 c0 -5 5 -10 10 -10 6 0 10 5 10 10 0 6 -4 10 -10 10 -5
0 -10 -4 -10 -10z"/>
<path d="M15480 13171 c0 -13 26 -32 33 -24 14 13 6 33 -13 33 -11 0 -20 -4
-20 -9z"/>
<path d="M3216 12983 c-11 -11 -6 -23 8 -23 8 0 17 4 20 9 7 10 -19 23 -28 14z"/>
<path d="M2885 12850 c4 -6 11 -8 16 -5 14 9 11 15 -7 15 -8 0 -12 -5 -9 -10z"/>
<path d="M2454 12688 c-3 -4 27 -8 65 -8 43 0 71 4 71 11 0 12 -128 10 -136
-3z"/>
<path d="M16600 12690 c0 -5 7 -10 15 -10 8 0 15 5 15 10 0 6 -7 10 -15 10 -8
0 -15 -4 -15 -10z"/>
<path d="M2255 12530 c-3 -5 -1 -10 4 -10 6 0 11 5 11 10 0 6 -2 10 -4 10 -3
0 -8 -4 -11 -10z"/>
<path d="M16932 12528 c6 -18 28 -21 28 -4 0 9 -7 16 -16 16 -9 0 -14 -5 -12
-12z"/>
<path d="M2087 12443 c-13 -13 -7 -53 8 -53 8 0 15 8 15 18 0 22 -14 44 -23
35z"/>
<path d="M18338 12373 c12 -2 32 -2 45 0 12 2 2 4 -23 4 -25 0 -35 -2 -22 -4z"/>
<path d="M17901 11874 c0 -11 3 -14 6 -6 3 7 2 16 -1 19 -3 4 -6 -2 -5 -13z"/>
<path d="M338 11813 c12 -2 32 -2 45 0 12 2 2 4 -23 4 -25 0 -35 -2 -22 -4z"/>
<path d="M722 11648 c2 -6 21 -22 41 -35 34 -21 37 -22 37 -5 0 9 -9 25 -20
35 -23 19 -64 23 -58 5z"/>
<path d="M18140 11567 c0 -20 9 -25 31 -20 28 8 24 33 -6 33 -14 0 -25 -6 -25
-13z"/>
<path d="M542 11248 c5 -15 28 -18 29 -3 0 6 -7 12 -17 13 -10 3 -15 -1 -12
-10z"/>
<path d="M482 11185 c2 -14 8 -26 13 -26 6 0 11 12 13 26 2 18 -1 25 -13 25
-12 0 -15 -7 -13 -25z"/>
<path d="M160 10536 c0 -9 5 -16 10 -16 6 0 10 4 10 9 0 6 -4 13 -10 16 -5 3
-10 -1 -10 -9z"/>
<path d="M5865 10481 c-17 -7 -17 -8 8 -15 30 -7 51 0 42 15 -7 11 -22 11 -50
0z"/>
<path d="M0 10165 c0 -17 4 -23 15 -19 11 5 12 11 4 25 -13 26 -19 24 -19 -6z"/>
<path d="M0 10055 c0 -22 4 -34 10 -30 13 8 13 52 0 60 -6 4 -10 -8 -10 -30z"/>
<path d="M5080 9996 c0 -2 7 -6 15 -10 8 -3 15 -1 15 4 0 6 -7 10 -15 10 -8 0
-15 -2 -15 -4z"/>
<path d="M0 9925 c0 -15 4 -24 10 -20 13 8 13 32 0 40 -6 4 -10 -5 -10 -20z"/>
<path d="M158 8893 c-7 -28 3 -113 13 -113 5 0 9 29 9 65 0 61 -12 87 -22 48z"/>
<path d="M200 8721 c0 -12 6 -21 16 -21 9 0 14 7 12 17 -5 25 -28 28 -28 4z"/>
<path d="M4612 8565 c-11 -12 -10 -15 3 -15 8 0 15 7 15 15 0 18 -2 18 -18 0z"/>
<path d="M4387 8404 c-16 -16 -5 -25 26 -22 17 2 31 8 30 13 -3 12 -46 19 -56
9z"/>
<path d="M18540 8389 c0 -5 5 -7 10 -4 6 3 10 8 10 11 0 2 -4 4 -10 4 -5 0
-10 -5 -10 -11z"/>
<path d="M4296 8245 c-3 -8 -1 -15 4 -15 6 0 10 7 10 15 0 8 -2 15 -4 15 -2 0
-6 -7 -10 -15z"/>
<path d="M410 8143 c-14 -9 -41 -27 -61 -40 -19 -12 -43 -23 -52 -23 -9 0 -17
-4 -17 -8 0 -11 -129 -42 -176 -42 -26 0 -47 -6 -55 -16 -13 -16 -8 -17 63
-12 43 3 83 10 90 15 7 6 32 14 55 18 23 3 62 20 88 36 25 16 49 29 54 29 9 0
61 46 61 55 0 10 -25 4 -50 -12z"/>
<path d="M4079 8134 c-12 -14 -10 -19 10 -35 18 -15 27 -17 38 -8 11 10 11 15
0 32 -18 28 -31 31 -48 11z"/>
<path d="M646 8083 c-3 -3 -3 -10 0 -14 7 -12 34 -11 34 0 0 11 -26 22 -34 14z"/>
<path d="M3995 8081 c-6 -11 9 -23 19 -14 9 9 7 23 -3 23 -6 0 -12 -4 -16 -9z"/>
<path d="M3925 7980 c-17 -19 -16 -20 14 -51 18 -17 35 -28 39 -24 4 3 -1 11
-12 17 -14 8 -17 17 -11 44 7 38 -3 43 -30 14z"/>
<path d="M800 7960 c0 -24 26 -38 42 -22 8 8 8 15 -2 27 -18 21 -40 19 -40 -5z"/>
<path d="M3780 7930 c-9 -6 -10 -10 -3 -10 6 0 15 5 18 10 8 12 4 12 -15 0z"/>
<path d="M880 7910 c0 -5 11 -10 25 -10 14 0 25 5 25 10 0 6 -11 10 -25 10
-14 0 -25 -4 -25 -10z"/>
<path d="M18062 7850 c0 -14 2 -19 5 -12 2 6 2 18 0 25 -3 6 -5 1 -5 -13z"/>
<path d="M3635 7776 c-24 -20 -28 -27 -17 -37 10 -11 17 -8 37 13 44 48 30 64
-20 24z"/>
<path d="M3460 7630 c0 -5 7 -10 15 -10 8 0 15 5 15 10 0 6 -7 10 -15 10 -8 0
-15 -4 -15 -10z"/>
<path d="M3500 7590 c0 -5 5 -10 10 -10 6 0 10 5 10 10 0 6 -4 10 -10 10 -5 0
-10 -4 -10 -10z"/>
<path d="M1487 7444 c-11 -12 3 -24 29 -24 16 0 24 5 22 13 -5 13 -40 22 -51
11z"/>
<path d="M3337 7443 c-12 -11 -8 -23 8 -23 8 0 15 7 15 15 0 16 -12 20 -23 8z"/>
<path d="M3104 7349 c-3 -5 3 -9 12 -9 13 0 15 -3 7 -11 -19 -19 5 -69 33 -69
29 0 29 1 5 42 -11 17 -18 35 -16 39 3 4 -4 9 -15 12 -11 3 -23 1 -26 -4z"/>
<path d="M1760 7315 c0 -10 7 -15 18 -13 21 4 19 22 -2 26 -10 2 -16 -3 -16
-13z"/>
<path d="M1830 7275 c0 -11 11 -15 38 -15 35 1 36 2 18 15 -26 19 -56 19 -56
0z"/>
<path d="M2962 7158 c2 -15 11 -24 26 -26 20 -3 23 0 20 20 -2 15 -11 24 -26
26 -20 3 -23 0 -20 -20z"/>
<path d="M2875 7130 c-3 -5 -17 -10 -30 -10 -13 0 -26 -4 -30 -10 -3 -5 14 -8
42 -7 26 1 46 5 45 10 -1 4 -2 12 -2 17 0 6 -4 10 -9 10 -6 0 -13 -4 -16 -10z"/>
<path d="M16935 7110 c3 -5 10 -10 16 -10 5 0 9 5 9 10 0 6 -7 10 -16 10 -8 0
-12 -4 -9 -10z"/>
<path d="M16440 6840 c-9 -18 -8 -20 15 -20 18 0 25 5 25 20 0 11 -7 20 -15
20 -8 0 -19 -9 -25 -20z"/>
<path d="M16373 6803 c-24 -9 -13 -23 17 -23 20 0 30 5 30 15 0 15 -22 19 -47
8z"/>
<path d="M15955 6630 c3 -5 15 -10 26 -10 10 0 19 5 19 10 0 6 -12 10 -26 10
-14 0 -23 -4 -19 -10z"/>
<path d="M16135 6630 c3 -5 8 -10 11 -10 2 0 4 5 4 10 0 6 -5 10 -11 10 -5 0
-7 -4 -4 -10z"/>
<path d="M6880 6315 c0 -8 7 -15 16 -15 14 0 14 3 4 15 -7 8 -14 15 -16 15 -2
0 -4 -7 -4 -15z"/>
<path d="M15325 6320 c-19 -7 -19 -8 -2 -15 19 -8 31 -2 26 13 -2 5 -13 6 -24
2z"/>
<path d="M15140 6310 c0 -5 14 -10 31 -10 17 0 28 4 24 10 -3 6 -17 10 -31 10
-13 0 -24 -4 -24 -10z"/>
<path d="M13885 5990 c-3 -5 3 -10 15 -10 12 0 18 5 15 10 -3 6 -10 10 -15 10
-5 0 -12 -4 -15 -10z"/>
<path d="M14015 5990 c-4 -6 8 -10 29 -10 20 0 36 5 36 10 0 6 -13 10 -29 10
-17 0 -33 -4 -36 -10z"/>
<path d="M13568 5873 c7 -3 16 -2 19 1 4 3 -2 6 -13 5 -11 0 -14 -3 -6 -6z"/>
<path d="M11204 5669 c-3 -5 6 -9 20 -9 31 0 34 6 6 13 -11 3 -23 1 -26 -4z"/>
<path d="M12080 5670 c0 -5 18 -10 40 -10 22 0 40 5 40 10 0 6 -18 10 -40 10
-22 0 -40 -4 -40 -10z"/>
<path d="M10830 5556 c0 -9 40 -13 46 -5 3 5 -6 9 -20 9 -14 0 -26 -2 -26 -4z"/>
</g>
</svg>
